<?xml version="1.0" encoding="utf-8"?>
<!-- Generator: Adobe Illustrator 16.0.0, SVG Export Plug-In . SVG Version: 6.00 Build 0)  -->
<!DOCTYPE svg PUBLIC "-//W3C//DTD SVG 1.1//EN" "http://www.w3.org/Graphics/SVG/1.1/DTD/svg11.dtd">
<svg version="1.1" id="图层_1" xmlns="http://www.w3.org/2000/svg" xmlns:xlink="http://www.w3.org/1999/xlink" x="0px" y="0px"
	 width="57px" height="57px" viewBox="0 0 57 57" enable-background="new 0 0 57 57" xml:space="preserve">
<path fill="#63A3CB" d="M2.466,3.894c-0.073,0-0.134-0.06-0.134-0.134l0,0c0-0.003,0.001-0.007,0.001-0.011l0,0
	c0.01-0.267,0.162-0.507,0.398-0.63C2.614,3.019,2.547,2.873,2.547,2.718c0-0.292,0.237-0.529,0.53-0.529s0.529,0.237,0.529,0.529
	C3.607,2.874,3.539,3.021,3.42,3.122c0.217,0.114,0.367,0.334,0.391,0.59C3.816,3.726,3.82,3.743,3.82,3.76
	c0,0.074-0.06,0.134-0.134,0.134S3.553,3.834,3.553,3.76c0-0.003,0.001-0.007,0.002-0.011c0-0.006,0-0.012,0-0.018
	C3.551,3.468,3.334,3.257,3.069,3.261C2.812,3.265,2.603,3.473,2.599,3.732C2.599,3.738,2.6,3.744,2.6,3.75H2.599
	C2.599,3.753,2.6,3.757,2.6,3.76C2.6,3.834,2.539,3.894,2.466,3.894z M3.075,2.988c0.146,0,0.266-0.119,0.266-0.266
	S3.222,2.458,3.075,2.458S2.811,2.576,2.811,2.722S2.929,2.988,3.075,2.988z M4.149,4.687H3.99l0,0L2.281,4.688
	c-0.009,0-0.018-0.001-0.026-0.003H2.122V4.53V4.529V4.528V4.367H2.44V4.37L4.14,4.369V4.367H3.903V4.365c0.001,0,0.002,0,0.004,0
	h0.071c0.088,0,0.159-0.071,0.159-0.159l0,0V4.133c0-0.001,0-0.001,0-0.003H4.14L4.139,1.952H4.138c0-0.001,0-0.002,0-0.003V1.876
	c0-0.088-0.071-0.159-0.159-0.159H3.907c-0.002,0-0.003,0.001-0.004,0.001V1.716h0.235V1.714L2.28,1.716
	c-0.009,0-0.018-0.002-0.026-0.003H2.122V1.569c0-0.004-0.001-0.008-0.001-0.012c0-0.005,0.001-0.009,0.001-0.013V1.395H2.44v0.002
	l1.7-0.001c0.174,0.001,0.314,0.142,0.316,0.316l0.001,2.729C4.425,4.582,4.3,4.687,4.149,4.687z M1.905,4.688H1.757
	C1.755,4.689,1.752,4.689,1.75,4.689c-0.088,0-0.159-0.071-0.159-0.159L1.59,1.551c0-0.088,0.071-0.159,0.159-0.159
	c0.009,0,0.017,0.001,0.025,0.003h0.131v0.127c0.001,0.01,0.003,0.02,0.003,0.029L1.909,4.53c0,0.013-0.002,0.024-0.004,0.036V4.688
	z"/>
<path fill="#63A3CB" d="M17.924,42.578c-1.397,0-2.53-0.984-2.53-2.201c0-0.061,0.016-0.119,0.021-0.178h-0.014
	c0.202-4.527,3.199-8.42,7.558-10.393c-2.138-1.603-3.496-3.971-3.496-6.619c0-4.828,4.497-8.741,10.046-8.741
	c5.547,0,10.044,3.913,10.044,8.741c0,2.666-1.375,5.05-3.54,6.654c4.105,1.887,6.956,5.498,7.398,9.719
	c0.115,0.252,0.183,0.527,0.183,0.816c0,1.217-1.133,2.201-2.53,2.201c-1.398,0-2.531-0.984-2.531-2.201
	c0-0.061,0.016-0.119,0.021-0.178c0.005-0.098,0.017-0.193,0.017-0.293c0-4.355-4.057-7.887-9.061-7.887
	c-5.006,0-9.064,3.531-9.064,7.887c0,0.1,0.013,0.195,0.018,0.293h-0.027c0.005,0.059,0.021,0.117,0.021,0.178
	C20.455,41.594,19.321,42.578,17.924,42.578L17.924,42.578z M29.477,27.624c2.774,0,5.023-1.957,5.023-4.372
	c0-2.416-2.249-4.371-5.023-4.371c-2.773,0-5.022,1.955-5.022,4.371C24.454,25.667,26.703,27.624,29.477,27.624z M49.83,55.656
	h-3.017v0.004l-32.382,0.021c-0.177,0-0.347-0.021-0.516-0.045h-2.502v-2.568c0-0.004-0.002-0.01-0.002-0.016
	c0-0.002,0.002-0.008,0.002-0.014v-2.654h6.033v0.041l32.203-0.02v-0.031h-4.473v-0.031c0.019,0,0.038,0.006,0.057,0.006H46.6
	c1.668,0,3.02-1.176,3.02-2.629v-1.188c0-0.018-0.006-0.033-0.006-0.051h0.036l-0.022-35.939h-0.014
	c0-0.019,0.006-0.034,0.006-0.051v-1.19c0-1.45-1.352-2.626-3.02-2.626h-1.365c-0.019,0-0.038,0.004-0.057,0.005V6.65h4.448V6.626
	L14.408,6.648c-0.171,0-0.336-0.021-0.5-0.044h-2.494V4.225c-0.006-0.068-0.023-0.133-0.023-0.202c0-0.07,0.018-0.135,0.023-0.204
	V1.354h6.033v0.039l32.215-0.021c3.302,0.018,5.975,2.338,6,5.21l0.026,45.033C55.058,53.928,52.683,55.656,49.83,55.656z
	 M7.293,55.684H4.482c-0.043,0-0.083,0.01-0.125,0.01c-1.666,0-3.018-1.176-3.018-2.627L1.312,3.933c0-1.449,1.352-2.627,3.02-2.627
	c0.165,0,0.325,0.021,0.483,0.042h2.479v2.11c0.032,0.154,0.055,0.313,0.055,0.475l0.028,49.133c0,0.205-0.032,0.4-0.083,0.592
	V55.684z"/>
</svg>
