<?xml version="1.0" encoding="utf-8"?>
<!-- Generator: Adobe Illustrator 16.0.0, SVG Export Plug-In . SVG Version: 6.00 Build 0)  -->
<!DOCTYPE svg PUBLIC "-//W3C//DTD SVG 1.1//EN" "http://www.w3.org/Graphics/SVG/1.1/DTD/svg11.dtd">
<svg version="1.1" id="图层_1" xmlns="http://www.w3.org/2000/svg" xmlns:xlink="http://www.w3.org/1999/xlink" x="0px" y="0px"
	 width="57px" height="57px" viewBox="0 0 57 57" enable-background="new 0 0 57 57" xml:space="preserve">
<path fill="#F7F8F9" d="M2.466,3.894c-0.073,0-0.134-0.06-0.134-0.134l0,0c0-0.003,0.001-0.007,0.001-0.011l0,0
	c0.01-0.267,0.162-0.507,0.398-0.63C2.614,3.019,2.547,2.873,2.547,2.718c0-0.292,0.237-0.529,0.53-0.529s0.529,0.237,0.529,0.529
	C3.607,2.874,3.539,3.021,3.42,3.122c0.217,0.114,0.367,0.334,0.391,0.59C3.816,3.726,3.82,3.743,3.82,3.76
	c0,0.074-0.06,0.134-0.134,0.134S3.553,3.834,3.553,3.76c0-0.003,0.001-0.007,0.002-0.011c0-0.006,0-0.012,0-0.018
	C3.551,3.468,3.334,3.257,3.069,3.261C2.812,3.265,2.603,3.473,2.599,3.732C2.599,3.738,2.6,3.744,2.6,3.75H2.599
	C2.599,3.753,2.6,3.757,2.6,3.76C2.6,3.834,2.539,3.894,2.466,3.894z M3.075,2.988c0.146,0,0.266-0.119,0.266-0.266
	S3.222,2.458,3.075,2.458S2.811,2.576,2.811,2.722S2.929,2.988,3.075,2.988z M4.149,4.687H3.99l0,0L2.281,4.688
	c-0.009,0-0.018-0.001-0.026-0.003H2.122V4.53V4.529V4.528V4.367H2.44V4.37L4.14,4.369V4.367H3.903V4.365c0.001,0,0.002,0,0.004,0
	h0.071c0.088,0,0.159-0.071,0.159-0.159l0,0V4.133c0-0.001,0-0.001,0-0.003H4.14L4.139,1.952H4.138c0-0.001,0-0.002,0-0.003V1.876
	c0-0.088-0.071-0.159-0.159-0.159H3.907c-0.002,0-0.003,0.001-0.004,0.001V1.716h0.235V1.714L2.28,1.716
	c-0.009,0-0.018-0.002-0.026-0.003H2.122V1.569c0-0.004-0.001-0.008-0.001-0.012c0-0.005,0.001-0.009,0.001-0.013V1.395H2.44v0.002
	l1.7-0.001c0.174,0.001,0.314,0.142,0.316,0.316l0.001,2.729C4.425,4.582,4.3,4.687,4.149,4.687z M1.905,4.688H1.757
	C1.755,4.689,1.752,4.689,1.75,4.689c-0.088,0-0.159-0.071-0.159-0.159L1.59,1.551c0-0.088,0.071-0.159,0.159-0.159
	c0.009,0,0.017,0.001,0.025,0.003h0.131v0.127c0.001,0.01,0.003,0.02,0.003,0.029L1.909,4.53c0,0.013-0.002,0.024-0.004,0.036V4.688
	z"/>
<path fill="#F7F8F9" d="M54.615,12.468l0.067-0.069l-0.105-0.14c-0.878-4.569-4.464-8-8.748-8H11.451
	c-4.934,0-8.955,4.562-8.955,10.168v28.146c0,5.607,4.019,10.169,8.955,10.169H45.83c4.938,0,8.953-4.562,8.951-10.172V14.426
	C54.781,13.756,54.725,13.101,54.615,12.468z M11.451,8.402h34.378c1.893,0,3.557,1.132,4.495,2.831L35.299,26.218l-0.103,0.099
	l-0.027,0.032l-2.709,2.702c-0.969,1.112-2.3,1.737-3.691,1.737c-1.397,0-2.708-0.618-3.783-1.83L7.049,11.068
	C8.02,9.41,9.674,8.408,11.451,8.402z M45.829,48.598H11.451c-2.926,0-5.308-2.703-5.308-6.025V15.677l12.369,12.333L9.43,38.338
	c-0.712,0.814-0.712,2.111,0,2.929c0.694,0.793,1.834,0.81,2.547,0.036c0.012-0.012,0.024-0.022,0.035-0.036l9.249-10.52
	l1.235,1.236c1.658,1.892,3.931,2.957,6.305,2.957c2.248,0,4.481-0.96,6.157-2.865l1.35-1.35l8.569,10.485
	c0.67,0.819,1.812,0.882,2.551,0.136c0.009-0.009,0.019-0.019,0.027-0.029c0.737-0.787,0.779-2.083,0.095-2.928l-8.499-10.4
	l12.082-12.049v26.635c0,3.32-2.377,6.023-5.303,6.023V48.598z"/>
</svg>
