<?xml version="1.0" encoding="utf-8"?>
<!-- Generator: Adobe Illustrator 16.0.0, SVG Export Plug-In . SVG Version: 6.00 Build 0)  -->
<!DOCTYPE svg PUBLIC "-//W3C//DTD SVG 1.1//EN" "http://www.w3.org/Graphics/SVG/1.1/DTD/svg11.dtd">
<svg version="1.1" id="图层_1" xmlns="http://www.w3.org/2000/svg" xmlns:xlink="http://www.w3.org/1999/xlink" x="0px" y="0px"
	 width="60px" height="60px" viewBox="0 0 60 60" enable-background="new 0 0 60 60" xml:space="preserve">
<path fill="#74B4D9" d="M31.878,32.41c0,0-0.276-0.125-0.776-0.312c4.041-2.837,6.701-7.655,6.701-13.125
	c0.003-8.728-6.78-15.804-15.144-15.804c-8.366,0-15.146,7.076-15.146,15.804c0,5.443,2.634,10.241,6.644,13.085
	c-1.346,0.546-2.632,1.237-3.834,2.062c0,0-9.076,5.884-9.911,16.983c0,0-0.288,2.33,0.358,3.454c0,0,0.872,1.227,2.313,1.022
	c0,0,2.073-0.135,2.205-2.73c0,0-0.057-2.657,0.938-5.528c0,0,0.876-2.681,2.529-4.85c0,0,2.141-3.172,6.098-5.187
	c0,0,4.256-2.384,9.408-1.798c0,0,3.598,0.169,7.296,2.422c0,0,5.084,2.416,7.636,9.794c0,0,0.78,2.427,0.812,4.742
	c0,0-0.34,2.924,2.46,3.155c0,0,2.459,0.186,2.431-3.17c0,0,0.129-6.147-3.645-11.841C41.248,40.59,37.871,34.994,31.878,32.41z
	 M11.838,18.978c0-6.236,4.842-11.291,10.817-11.291c5.976,0,10.817,5.055,10.817,11.291c0,6.239-4.843,11.295-10.817,11.295
	C16.682,30.273,11.838,25.217,11.838,18.978z"/>
<path fill="#74B4D9" d="M59.647,50.681c-0.012-0.323-0.101-5.543-2.999-10.524c0,0-3.319-6.419-9.946-9.24l-0.228-0.145
	c0,0,1.477-1.168,2.173-2.057c0,0,3.042-3.339,3.491-8.011c0,0,1.148-4.805-2.756-10.794c0,0-2.012-2.736-4.35-4.046
	c0,0-4.782-2.877-7.769-1.674c0,0-1.428,0.742-1.104,2.662c0,0,0.065,1.622,3.931,2.288c0,0,4.377,1.029,6.461,6.024
	c0,0,1.729,4.019-0.329,8.05c0,0-1.432,3.072-4.009,4.348c0,0-2.709,1.212-2.292,4.308c0,0,0.081,2.082,5.246,3.851
	c0,0,4.652,2.126,7.362,7.187c0,0,2.067,3.622,2.146,7.685c0,0-0.358,3.285,2.495,3.432C57.175,54.022,59.799,54.231,59.647,50.681
	L59.647,50.681z"/>
</svg>
