<?xml version="1.0" encoding="utf-8"?>
<!-- Generator: Adobe Illustrator 16.0.0, SVG Export Plug-In . SVG Version: 6.00 Build 0)  -->
<!DOCTYPE svg PUBLIC "-//W3C//DTD SVG 1.1//EN" "http://www.w3.org/Graphics/SVG/1.1/DTD/svg11.dtd">
<svg version="1.1" id="图层_1" xmlns="http://www.w3.org/2000/svg" xmlns:xlink="http://www.w3.org/1999/xlink" x="0px" y="0px"
	 width="68px" height="68px" viewBox="0 0 68 68" enable-background="new 0 0 68 68" xml:space="preserve">
<path fill="#1296DB" d="M51.766,13.092c1.731,0,3.137-1.405,3.137-3.137V3.684c0-1.732-1.405-3.137-3.137-3.137
	S48.63,1.952,48.63,3.684v6.271C48.63,11.688,50.034,13.092,51.766,13.092z M36.085,13.092c1.731,0,3.137-1.405,3.137-3.137V3.684
	c0-1.732-1.405-3.137-3.137-3.137c-1.73,0-3.135,1.405-3.135,3.137v6.271C32.95,11.688,34.354,13.092,36.085,13.092z M63.265,6.82
	h-5.226v3.136c0,3.464-2.808,6.272-6.273,6.272c-3.462,0-6.271-2.81-6.271-6.272V6.82h-3.137v3.136c0,3.464-2.807,6.272-6.272,6.272
	c-3.463,0-6.272-2.81-6.272-6.272V6.82h-3.136v3.136c0,3.464-2.808,6.272-6.272,6.272c-3.463,0-6.272-2.81-6.272-6.272V6.82H8.905
	c-1.731,0-3.136,1.405-3.136,3.136v54.36c0,1.732,1.405,3.136,3.136,3.136h54.359c1.732,0,3.137-1.403,3.137-3.136V9.956
	C66.401,8.225,64.997,6.82,63.265,6.82z M55.425,56.997H16.746c-1.444,0-2.613-1.168-2.613-2.612c0-1.443,1.169-2.613,2.613-2.613
	h38.679c1.444,0,2.614,1.17,2.614,2.613C58.039,55.829,56.869,56.997,55.425,56.997z M54.902,44.453H17.269
	c-1.731,0-3.136-1.405-3.136-3.136c0-1.731,1.405-3.136,3.136-3.136h37.634c1.731,0,3.137,1.404,3.137,3.136
	C58.039,43.048,56.634,44.453,54.902,44.453z M54.902,30.863H17.269c-1.731,0-3.136-1.405-3.136-3.136
	c0-1.731,1.405-3.136,3.136-3.136h37.634c1.731,0,3.137,1.405,3.137,3.136C58.039,29.458,56.634,30.863,54.902,30.863z
	 M20.405,13.092c1.731,0,3.136-1.405,3.136-3.137V3.684c0-1.732-1.405-3.137-3.136-3.137s-3.136,1.405-3.136,3.137v6.271
	C17.269,11.688,18.673,13.092,20.405,13.092z"/>
</svg>
