<?xml version="1.0" encoding="utf-8"?>
<!-- Generator: Adobe Illustrator 16.0.0, SVG Export Plug-In . SVG Version: 6.00 Build 0)  -->
<!DOCTYPE svg PUBLIC "-//W3C//DTD SVG 1.1//EN" "http://www.w3.org/Graphics/SVG/1.1/DTD/svg11.dtd">
<svg version="1.1" id="图层_1" xmlns="http://www.w3.org/2000/svg" xmlns:xlink="http://www.w3.org/1999/xlink" x="0px" y="0px"
	 width="68px" height="68px" viewBox="0 0 68 68" enable-background="new 0 0 68 68" xml:space="preserve">
<path fill="#FBC02D" d="M61.823,67.396H12.776c-2.579,0-4.67-2.093-4.671-4.673v-9.342h4.671c1.289-0.002,2.333-1.044,2.335-2.335
	v-2.337c0-1.29-1.046-2.336-2.335-2.336H8.106v-4.669h4.669c1.289-0.002,2.333-1.044,2.335-2.335v-2.334
	c0-1.292-1.046-2.336-2.335-2.336H8.106v-4.672h4.668c1.291,0.001,2.337-1.044,2.338-2.335l0,0v-2.333
	c0.001-1.291-1.044-2.338-2.334-2.34c-0.002,0-0.003,0-0.004,0H8.106v-4.671h4.668c1.29,0,2.336-1.045,2.338-2.335v-2.335
	c0-1.291-1.046-2.337-2.337-2.337c0,0-0.001,0-0.001,0H8.106v-4.67C8.11,4.095,10.2,2.009,12.776,2.009H52.48
	c2.581-0.001,4.671,2.089,4.673,4.667c0,0.002,0,0.003,0,0.004h4.671c2.58-0.001,4.671,2.088,4.673,4.667c0,0.001,0,0.002,0,0.004
	v51.372c-0.002,2.581-2.093,4.671-4.673,4.673L61.823,67.396z M51.033,16.562l-4.149-2.327c-0.992-0.556-2.698-0.115-3.27,0.849
	L25.644,45.328l8.303,4.647l17.963-30.228c0.571-0.963,0.114-2.623-0.876-3.18V16.562z M24.455,47.333v8.38l8.295-3.722
	l-8.295-4.653V47.333z M61.823,13.666c0-4.707-2.092-4.222-4.672-4.222v46.274c-0.001,2.58-2.093,4.671-4.673,4.671h-42.04
	c0.001,2.58,2.092,4.673,4.672,4.673h42.042c4.523,0,4.671-2.095,4.671-4.673V13.679L61.823,13.666z M12.776,16.014H5.77v-2.335
	h7.006V16.014z M12.776,27.691H5.77v-2.332h7.006v2.334V27.691z M12.776,39.369H5.77v-2.334h7.006V39.369L12.776,39.369z
	 M12.776,51.048H5.77v-2.339h7.006v2.335V51.048z"/>
</svg>
