<?xml version="1.0" encoding="utf-8"?>
<!-- Generator: Adobe Illustrator 16.0.0, SVG Export Plug-In . SVG Version: 6.00 Build 0)  -->
<!DOCTYPE svg PUBLIC "-//W3C//DTD SVG 1.1//EN" "http://www.w3.org/Graphics/SVG/1.1/DTD/svg11.dtd">
<svg version="1.1" id="图层_1" xmlns="http://www.w3.org/2000/svg" xmlns:xlink="http://www.w3.org/1999/xlink" x="0px" y="0px"
	 width="68px" height="68px" viewBox="0 0 68 68" enable-background="new 0 0 68 68" xml:space="preserve">
<path fill="#2E7D32" d="M62.23,13.709C62.23,13.166,62.23,13.166,62.23,13.709v-1.086L49.202,1.222
	c-0.544-0.543-1.086-0.543-1.629-0.543H10.112C7.398,0.137,5.77,1.222,5.77,3.937v59.72c0,2.713,1.085,3.799,3.8,3.799h48.317
	c2.716,0,3.803-1.086,3.803-3.799L62.23,13.709L62.23,13.709z M50.287,51.168H17.713c-1.085,0-2.171-1.086-2.171-2.17
	c0-1.086,1.086-2.174,2.171-2.174h32.574c1.086,0,2.172,1.088,2.172,2.174C52.459,50.627,51.373,51.168,50.287,51.168z
	 M50.287,39.77H17.713c-1.085,0-2.171-1.088-2.171-2.174s1.086-2.17,2.171-2.17h32.574c1.086,0,2.172,1.084,2.172,2.17
	S51.373,39.77,50.287,39.77z M50.287,27.282H17.713c-1.085,0-2.171-1.086-2.171-2.172c0-1.086,1.086-2.171,2.171-2.171h32.574
	c1.086,0,2.172,1.085,2.172,2.171C52.459,26.195,51.373,27.282,50.287,27.282z M49.202,11.537V6.651l4.885,4.343h-4.885V11.537z"/>
</svg>
