<?xml version="1.0" standalone="no"?><!DOCTYPE svg PUBLIC "-//W3C//DTD SVG 1.1//EN" "http://www.w3.org/Graphics/SVG/1.1/DTD/svg11.dtd"><svg class="icon" width="200px" height="200.00px" viewBox="0 0 1024 1024" version="1.1" xmlns="http://www.w3.org/2000/svg"><path fill="#dbdbdb" d="M750.102171 488.473991 321.818637 67.79419c-13.160567-12.918985-34.486148-12.918985-47.592528 0-13.160567 12.891891-13.160567 33.840876 0 46.733219l404.484786 397.313192-404.484786 397.313644c-13.160567 12.891891-13.160567 33.840876 0 46.732768 13.106832 12.892343 34.431962 12.892343 47.592528 0l428.283534-420.678447C763.262286 522.289581 763.262286 501.365883 750.102171 488.473991L750.102171 488.473991zM750.102171 488.473991M750.102171 488.473991 321.818637 67.79419c-13.160567-12.918985-34.486148-12.918985-47.592528 0-13.160567 12.891891-13.160567 33.840876 0 46.733219l404.484786 397.313192-404.484786 397.313644c-13.160567 12.891891-13.160567 33.840876 0 46.732768 13.106832 12.892343 34.431962 12.892343 47.592528 0l428.283534-420.678447C763.262286 522.289581 763.262286 501.365883 750.102171 488.473991L750.102171 488.473991zM750.102171 488.473991" /></svg>