<?xml version="1.0" encoding="utf-8"?>
<!-- Generator: Adobe Illustrator 16.0.0, SVG Export Plug-In . SVG Version: 6.00 Build 0)  -->
<!DOCTYPE svg PUBLIC "-//W3C//DTD SVG 1.1//EN" "http://www.w3.org/Graphics/SVG/1.1/DTD/svg11.dtd">
<svg version="1.1" id="图层_1" xmlns="http://www.w3.org/2000/svg" xmlns:xlink="http://www.w3.org/1999/xlink" x="0px" y="0px"
	 width="60px" height="60px" viewBox="0 0 60 60" enable-background="new 0 0 60 60" xml:space="preserve">
<path fill="#515151" d="M57.951,18.587c-1.505-3.562-3.661-6.76-6.409-9.506c-2.745-2.746-5.943-4.903-9.506-6.409
	c-3.688-1.561-7.605-2.351-11.643-2.351c-4.037,0-7.954,0.791-11.642,2.351c-3.562,1.506-6.76,3.663-9.506,6.409
	c-2.747,2.746-4.902,5.944-6.409,9.506c-1.56,3.688-2.351,7.605-2.351,11.643c0,4.038,0.791,7.955,2.351,11.643
	c1.507,3.562,3.663,6.759,6.409,9.506c2.746,2.746,5.944,4.902,9.506,6.409c3.688,1.561,7.605,2.351,11.642,2.351
	c4.037,0,7.955-0.79,11.643-2.351c3.563-1.506,6.761-3.663,9.506-6.409c2.748-2.747,4.904-5.944,6.409-9.506
	c1.561-3.688,2.353-7.605,2.353-11.643C60.304,26.193,59.512,22.276,57.951,18.587z M30.394,56.673
	C15.813,56.673,3.95,44.812,3.95,30.23c0-14.581,11.863-26.444,26.443-26.444c14.582,0,26.444,11.863,26.444,26.444
	C56.838,44.812,44.976,56.673,30.394,56.673z"/>
<path fill="#515151" d="M33.9,14.525h-6.245v12.416H15.019v6.319h12.637v12.417H33.9V33.26h12.563v-6.319H33.9V14.525z"/>
</svg>
