<?xml version="1.0" encoding="utf-8"?>
<!-- Generator: Adobe Illustrator 16.0.0, SVG Export Plug-In . SVG Version: 6.00 Build 0)  -->
<!DOCTYPE svg PUBLIC "-//W3C//DTD SVG 1.1//EN" "http://www.w3.org/Graphics/SVG/1.1/DTD/svg11.dtd">
<svg version="1.1" id="图层_1" xmlns="http://www.w3.org/2000/svg" xmlns:xlink="http://www.w3.org/1999/xlink" x="0px" y="0px"
	 width="114px" height="114px" viewBox="0 0 114 114" enable-background="new 0 0 114 114" xml:space="preserve">
<path fill="#F1F2F2" stroke="#1296DB" stroke-miterlimit="10" d="M112.125,100.296c0,6.533-5.443,11.829-12.159,11.829H14.032
	c-6.713,0-12.157-5.296-12.157-11.829V13.703c0-6.531,5.444-11.828,12.157-11.828h85.934c6.716,0,12.159,5.297,12.159,11.828
	V100.296z"/>
<path fill="#71ACCF" d="M88.521,85.265H36.519c-1.56,0-2.821-1.262-2.821-2.82V30.442c0-1.559,1.261-2.821,2.821-2.821
	c1.559,0,2.821,1.263,2.821,2.821v49.182h49.182c1.56,0,2.821,1.26,2.821,2.82C91.343,84.003,90.081,85.265,88.521,85.265
	L88.521,85.265z"/>
<path fill="#71ACCF" d="M77.584,95.804c-1.56,0-2.821-1.262-2.821-2.82V83.39c0-1.561,1.262-2.82,2.821-2.82s2.821,1.26,2.821,2.82
	v9.594C80.405,94.542,79.144,95.804,77.584,95.804L77.584,95.804z"/>
<path fill="#71ACCF" d="M77.584,76.333c-1.56,0-2.821-1.262-2.821-2.82V43.803H45.688c-1.56,0-2.821-1.261-2.821-2.821
	c0-1.559,1.262-2.82,2.821-2.82h31.896c1.56,0,2.821,1.262,2.821,2.82v32.531C80.405,75.071,79.144,76.333,77.584,76.333
	L77.584,76.333z"/>
<path fill="#71ACCF" d="M35.108,43.803h-9.526c-1.56,0-2.821-1.261-2.821-2.821c0-1.559,1.262-2.82,2.821-2.82h9.526
	c1.559,0,2.821,1.262,2.821,2.82C37.93,42.542,36.667,43.803,35.108,43.803L35.108,43.803z"/>
<path fill="#71ACCF" d="M68.619,75.382H45.484c-2.314,0-4.207-1.893-4.207-4.311V52.353c0-2.419,1.893-4.312,4.207-4.312h23.135
	c2.313,0,4.206,1.893,4.206,4.312v18.718C72.825,73.489,70.933,75.382,68.619,75.382z M45.484,50.355
	c-1.052,0-1.893,0.841-1.893,1.998v18.718c0,1.051,0.841,1.998,1.893,1.998h23.135c1.052,0,1.894-0.842,1.894-1.998V52.353
	c0-1.052-0.842-1.998-1.894-1.998H45.484z"/>
<path fill="#71ACCF" d="M55.895,70.966c-0.315,0-0.63-0.105-0.841-0.316l-3.786-3.891l-3.47,3.576c-0.421,0.42-1.157,0.42-1.683,0
	c-0.421-0.42-0.421-1.156,0-1.682l4.312-4.418c0.42-0.42,1.156-0.42,1.682,0l4.627,4.732c0.42,0.42,0.42,1.156,0,1.682
	C56.526,70.86,56.21,70.966,55.895,70.966z M67.252,69.284c-0.315,0-0.631-0.105-0.841-0.316l-6.521-6.625l-2.944,3.049
	c-0.42,0.422-1.157,0.422-1.682,0c-0.421-0.42-0.421-1.156,0-1.682l3.786-3.891c0.421-0.422,1.156-0.422,1.683,0l7.36,7.467
	c0.42,0.42,0.42,1.156,0,1.682C67.883,69.073,67.567,69.284,67.252,69.284z M52.319,60.134c-2.313,0-4.207-1.893-4.207-4.311
	c0-2.419,1.893-4.311,4.207-4.311c2.314,0,4.207,1.892,4.207,4.311C56.526,58.241,54.633,60.134,52.319,60.134z M52.319,53.93
	c-1.051,0-1.893,0.842-1.893,1.998c0,1.157,0.841,1.999,1.893,1.999c1.052,0,1.893-0.842,1.893-1.999
	C54.212,54.772,53.371,53.93,52.319,53.93z"/>
</svg>
