<?xml version="1.0" encoding="utf-8"?>
<!-- Generator: Adobe Illustrator 16.0.0, SVG Export Plug-In . SVG Version: 6.00 Build 0)  -->
<!DOCTYPE svg PUBLIC "-//W3C//DTD SVG 1.1//EN" "http://www.w3.org/Graphics/SVG/1.1/DTD/svg11.dtd">
<svg version="1.1" id="图层_1" xmlns="http://www.w3.org/2000/svg" xmlns:xlink="http://www.w3.org/1999/xlink" x="0px" y="0px"
	 width="114px" height="114px" viewBox="0 0 114 114" enable-background="new 0 0 114 114" xml:space="preserve">
<path fill="#F1F2F2" stroke="#1296DB" stroke-miterlimit="10" d="M112.125,100.296c0,6.533-5.444,11.829-12.159,11.829H14.032
	c-6.713,0-12.157-5.296-12.157-11.829V13.703c0-6.531,5.444-11.828,12.157-11.828h85.934c6.715,0,12.159,5.297,12.159,11.828
	V100.296z"/>
<path fill="#71ACCF" d="M77.823,32.003H62.07c-0.767-2.934-3.416-6.749-6.556-6.749h-14.29c-3.175,0-5.848,3.864-6.582,6.844
	c-6.223,0.764-11.06,6.135-11.06,12.622v31.309c0,7.014,5.649,12.718,12.59,12.718h41.65c6.944,0,12.593-5.704,12.593-12.718V44.72
	C90.416,37.707,84.768,32.003,77.823,32.003z M84.604,76.028c0,3.776-3.042,6.847-6.781,6.847h-41.65
	c-3.736,0-6.778-3.07-6.778-6.847V44.72c0-3.775,3.042-6.846,6.778-6.846h1.175c1.606,0,2.908-1.315,2.908-2.938v-1.185
	c0-0.541,0.434-2.627,0.969-2.627h14.29c0.532,0,0.969,2.086,0.969,2.627v1.185c0,1.622,1.299,2.938,2.905,2.938h18.435
	c3.739,0,6.781,3.07,6.781,6.846V76.028L84.604,76.028z M57.482,43.744c-9.079,0-16.463,7.46-16.463,16.63
	s7.385,16.631,16.463,16.631c9.082,0,16.467-7.461,16.467-16.631S66.564,43.744,57.482,43.744z M57.482,71.137
	c-5.874,0-10.655-4.829-10.655-10.763c0-5.933,4.781-10.762,10.655-10.762c5.877,0,10.654,4.829,10.654,10.762
	C68.137,66.308,63.359,71.137,57.482,71.137z M55.547,53.524c-2.141,0-3.874,1.753-3.874,3.916c0,2.16,1.733,3.913,3.874,3.913
	c2.138,0,3.874-1.753,3.874-3.913C59.421,55.277,57.685,53.524,55.547,53.524z"/>
</svg>
