<?xml version="1.0" encoding="utf-8"?>
<!-- Generator: Adobe Illustrator 16.0.0, SVG Export Plug-In . SVG Version: 6.00 Build 0)  -->
<!DOCTYPE svg PUBLIC "-//W3C//DTD SVG 1.1//EN" "http://www.w3.org/Graphics/SVG/1.1/DTD/svg11.dtd">
<svg version="1.1" id="图层_1" xmlns="http://www.w3.org/2000/svg" xmlns:xlink="http://www.w3.org/1999/xlink" x="0px" y="0px"
	 width="114px" height="114px" viewBox="0 0 114 114" enable-background="new 0 0 114 114" xml:space="preserve">
<path fill="#F1F2F2" stroke="#1296DB" stroke-miterlimit="10" d="M112.125,100.296c0,6.533-5.444,11.829-12.159,11.829H14.032
	c-6.713,0-12.157-5.296-12.157-11.829V13.703c0-6.531,5.444-11.828,12.157-11.828h85.934c6.715,0,12.159,5.297,12.159,11.828
	V100.296z"/>
<path fill="#71ACCF" d="M66.629,24.207H31.298c-3.546,0-6.419,2.445-6.419,5.47v54.647c0,3.023,2.874,5.469,6.419,5.469h51.392
	c3.547,0,6.432-2.443,6.432-5.469V46.073L66.629,24.207L66.629,24.207z M63.418,32.411l0.023-2.734l19.225,19.12H63.418V32.411
	L63.418,32.411z M82.689,84.324H31.298V29.677H57v16.454c0,3.141,3.209,5.4,3.209,5.4s2.816,2.734,6.582,2.734h15.898V84.324
	L82.689,84.324z"/>
</svg>
