<?xml version="1.0" encoding="utf-8"?>
<!-- Generator: Adobe Illustrator 16.0.0, SVG Export Plug-In . SVG Version: 6.00 Build 0)  -->
<!DOCTYPE svg PUBLIC "-//W3C//DTD SVG 1.1//EN" "http://www.w3.org/Graphics/SVG/1.1/DTD/svg11.dtd">
<svg version="1.1" id="图层_1" xmlns="http://www.w3.org/2000/svg" xmlns:xlink="http://www.w3.org/1999/xlink" x="0px" y="0px"
	 width="114px" height="114px" viewBox="0 0 114 114" enable-background="new 0 0 114 114" xml:space="preserve">
<path fill="#F1F2F2" stroke="#1296DB" stroke-miterlimit="10" d="M112.125,100.296c0,6.533-5.444,11.829-12.159,11.829H14.032
	c-6.713,0-12.157-5.296-12.157-11.829V13.703c0-6.531,5.444-11.828,12.157-11.828h85.934c6.715,0,12.159,5.297,12.159,11.828
	V100.296z"/>
<path fill="#71ACCF" d="M81.469,85.916H32.533c-4.895,0-8.898-4.004-8.898-9.119V37.203c0-5.116,4.004-9.119,8.898-9.119h48.936
	c4.893,0,8.896,4.003,8.896,9.119v39.594C90.365,81.912,86.361,85.916,81.469,85.916z M32.533,32.977
	c-2.225,0-4.004,1.78-4.004,4.227v39.594c0,2.225,1.779,4.226,4.004,4.226h48.936c2.224,0,4.003-1.779,4.003-4.226V37.203
	c0-2.225-1.779-4.227-4.003-4.227H32.533z"/>
<path fill="#71ACCF" d="M54.554,76.574c-0.668,0-1.335-0.223-1.779-0.668l-8.009-8.229l-7.34,7.563c-0.89,0.89-2.446,0.89-3.559,0
	c-0.89-0.89-0.89-2.446,0-3.559l9.119-9.343c0.891-0.889,2.447-0.889,3.56,0l9.787,10.01c0.89,0.89,0.89,2.447,0,3.559
	C55.888,76.352,55.221,76.574,54.554,76.574z M78.576,73.016c-0.668,0-1.335-0.223-1.779-0.668L63.006,58.335l-6.228,6.45
	c-0.891,0.89-2.447,0.89-3.56,0c-0.89-0.891-0.89-2.447,0-3.56l8.008-8.229c0.89-0.89,2.446-0.89,3.559,0l15.57,15.793
	c0.89,0.89,0.89,2.446,0,3.559C79.91,72.57,79.243,73.016,78.576,73.016z M46.99,53.663c-4.893,0-8.896-4.004-8.896-9.119
	c0-5.116,4.004-9.12,8.896-9.12c4.894,0,8.897,4.004,8.897,9.12C55.888,49.659,51.884,53.663,46.99,53.663z M46.99,40.54
	c-2.225,0-4.004,1.779-4.004,4.226c0,2.447,1.779,4.227,4.004,4.227s4.004-1.779,4.004-4.227
	C50.994,42.319,49.215,40.54,46.99,40.54z"/>
</svg>
