<?xml version="1.0" encoding="utf-8"?>
<!-- Generator: Adobe Illustrator 16.0.0, SVG Export Plug-In . SVG Version: 6.00 Build 0)  -->
<!DOCTYPE svg PUBLIC "-//W3C//DTD SVG 1.1//EN" "http://www.w3.org/Graphics/SVG/1.1/DTD/svg11.dtd">
<svg version="1.1" id="图层_1" xmlns="http://www.w3.org/2000/svg" xmlns:xlink="http://www.w3.org/1999/xlink" x="0px" y="0px"
	 width="114px" height="114px" viewBox="0 0 114 114" enable-background="new 0 0 114 114" xml:space="preserve">
<path fill="#F1F2F2" stroke="#1296DB" stroke-miterlimit="10" d="M112.125,100.296c0,6.533-5.444,11.829-12.159,11.829H14.032
	c-6.713,0-12.157-5.296-12.157-11.829V13.703c0-6.531,5.444-11.828,12.157-11.828h85.934c6.715,0,12.159,5.297,12.159,11.828
	V100.296z"/>
<path fill="#74B4D9" d="M56.995,25.4c-17.737,0-32.115,12.377-32.115,27.647c0,8.728,4.707,16.5,12.045,21.56V88.6l14.07-8.4
	c1.946,0.313,3.952,0.5,6.004,0.5c17.742,0,32.12-12.381,32.12-27.652C89.119,37.777,74.736,25.4,56.995,25.4z M56.995,76.748
	c-2.28-0.01-4.554-0.25-6.787-0.719l-9.446,5.582l0.125-9.156c-7.242-4.289-11.995-11.373-11.995-19.403
	c0-13.09,12.584-23.695,28.103-23.695c15.529,0,28.108,10.61,28.108,23.695C85.103,66.143,72.523,76.748,56.995,76.748z M57,53.528
	c-0.365,0-0.661,0.297-0.661,0.661v2.644c0,0.365,0.295,0.66,0.661,0.66c0.365,0,0.661-0.295,0.661-0.66v-2.644
	C57.661,53.825,57.365,53.528,57,53.528z M57,51.567c-0.001,0-0.002-0.001-0.002-0.002v-0.01c0,0,0-0.001,0.002-0.001
	c0,0,0.001,0.001,0.001,0.001v0.01C57.001,51.566,57,51.567,57,51.567z M50.318,62.559c-2.023,0-3.669-1.646-3.669-3.67v-6.756
	c0-2.021,1.646-3.668,3.669-3.668h0.626v-1.875c0-3.339,2.716-6.056,6.056-6.056c3.339,0,6.056,2.717,6.056,6.056v1.875h0.627
	c2.022,0,3.668,1.646,3.668,3.668v6.756c0,2.023-1.646,3.67-3.668,3.67H50.318z M50.318,50.001c-1.176,0-2.132,0.956-2.132,2.131
	v6.756c0,1.176,0.956,2.131,2.132,2.131h13.365c1.175,0,2.131-0.955,2.131-2.131v-6.756c0-1.175-0.956-2.131-2.131-2.131H50.318
	L50.318,50.001z M57,42.071c-2.492,0-4.519,2.027-4.519,4.519v1.875h9.036v-1.875C61.518,44.098,59.491,42.071,57,42.071z"/>
</svg>
