<?xml version="1.0" encoding="utf-8"?>
<!-- Generator: Adobe Illustrator 16.0.0, SVG Export Plug-In . SVG Version: 6.00 Build 0)  -->
<!DOCTYPE svg PUBLIC "-//W3C//DTD SVG 1.1//EN" "http://www.w3.org/Graphics/SVG/1.1/DTD/svg11.dtd">
<svg version="1.1" id="图层_1" xmlns="http://www.w3.org/2000/svg" xmlns:xlink="http://www.w3.org/1999/xlink" x="0px" y="0px"
	 width="37px" height="37px" viewBox="0 0 37 37" enable-background="new 0 0 37 37" xml:space="preserve">
<g>
	<path fill="#1295DB" d="M34.336,31.871l-6.164-6.164c-0.455-0.455-1.098-0.6-1.678-0.445l-1.404-1.404
		c-0.01-0.01-0.025-0.014-0.037-0.023c4.506-5.136,4.322-12.949-0.578-17.85c-5.107-5.106-13.385-5.106-18.491,0
		c-5.106,5.105-5.106,13.385,0,18.49c4.9,4.9,12.714,5.084,17.85,0.578c0.01,0.012,0.014,0.027,0.023,0.037l1.404,1.404
		c-0.154,0.58-0.01,1.223,0.445,1.678l6.164,6.164c0.68,0.68,1.783,0.68,2.465,0C35.016,33.654,35.016,32.551,34.336,31.871z
		 M23.242,23.242c-4.426,4.424-11.601,4.424-16.025,0c-4.425-4.426-4.425-11.6,0-16.025c4.425-4.425,11.6-4.425,16.025,0
		C27.666,11.643,27.666,18.816,23.242,23.242z"/>
</g>
</svg>
