<?xml version="1.0" encoding="utf-8"?>
<!-- Generator: Adobe Illustrator 16.0.0, SVG Export Plug-In . SVG Version: 6.00 Build 0)  -->
<!DOCTYPE svg PUBLIC "-//W3C//DTD SVG 1.1//EN" "http://www.w3.org/Graphics/SVG/1.1/DTD/svg11.dtd">
<svg version="1.1" id="图层_1" xmlns="http://www.w3.org/2000/svg" xmlns:xlink="http://www.w3.org/1999/xlink" x="0px" y="0px"
	 width="69px" height="69px" viewBox="0 0 69 69" enable-background="new 0 0 69 69" xml:space="preserve">
<path fill="#1AFA29" d="M69,56.696c0,6.729-5.457,12.187-12.187,12.187H12.187C5.456,68.883,0,63.426,0,56.696V12.07
	C0,5.339,5.456-0.117,12.187-0.117h44.626C63.543-0.117,69,5.339,69,12.07V56.696z"/>
<path fill="#FFFFFF" d="M25.627,30.193H19.2v-7.231h-2.496v7.231h-6.429v2.809h6.429v7.23H19.2v-7.23h6.427V30.193z"/>
<path fill="#FFFFFF" d="M42.613,34.951c0,0-0.188-0.095-0.531-0.233c2.773-2.142,4.6-5.772,4.6-9.897
	c0-6.581-4.653-11.916-10.395-11.916c-5.74,0-10.393,5.334-10.393,11.916c0,4.104,1.808,7.72,4.559,9.864
	c-0.923,0.412-1.807,0.933-2.631,1.556c0,0-6.229,4.434-6.802,12.8c0,0-0.198,1.76,0.245,2.607c0,0,0.598,0.924,1.587,0.771
	c0,0,1.422-0.102,1.513-2.06c0,0-0.039-2.002,0.643-4.168c0,0,0.602-2.02,1.736-3.655c0,0,1.469-2.39,4.184-3.91
	c0,0,2.922-1.797,6.457-1.356c0,0,2.468,0.126,5.007,1.827c0,0,3.489,1.821,5.24,7.382c0,0,0.535,1.829,0.558,3.576
	c0,0-0.234,2.203,1.686,2.379c0,0,1.689,0.141,1.669-2.39c0,0,0.088-4.637-2.499-8.925C49.046,41.119,46.728,36.901,42.613,34.951z
	 M36.285,33.341c-4.1,0-7.423-3.813-7.423-8.516c0-4.701,3.323-8.512,7.423-8.512c4.101,0,7.423,3.811,7.423,8.512
	C43.709,29.528,40.385,33.341,36.285,33.341z"/>
<path fill="#FFFFFF" d="M59.615,40.79c0,0-2.279-4.838-6.828-6.965l-0.153-0.11c0,0,1.012-0.881,1.49-1.551
	c0,0,2.088-2.517,2.397-6.039c0,0,0.786-3.623-1.891-8.137c0-0.001-1.381-2.063-2.987-3.051c0,0-3.282-2.169-5.331-1.262
	c0,0-0.98,0.559-0.758,2.006c0,0,0.046,1.223,2.701,1.725c0,0,3,0.775,4.432,4.541c0,0,1.188,3.03-0.226,6.07
	c0,0-0.982,2.316-2.751,3.278c0,0-1.86,0.914-1.573,3.248c0,0,0.055,1.569,3.599,2.902c0,0,3.195,1.605,5.054,5.419
	c0,0,1.418,2.729,1.472,5.795c0,0-0.245,2.478,1.713,2.585c0,0,1.802,0.158,1.699-2.517C61.664,48.481,61.602,44.548,59.615,40.79z"
	/>
</svg>
