<?xml version="1.0" encoding="utf-8"?>
<!-- Generator: Adobe Illustrator 16.0.0, SVG Export Plug-In . SVG Version: 6.00 Build 0)  -->
<!DOCTYPE svg PUBLIC "-//W3C//DTD SVG 1.1//EN" "http://www.w3.org/Graphics/SVG/1.1/DTD/svg11.dtd">
<svg version="1.1" id="图层_1" xmlns="http://www.w3.org/2000/svg" xmlns:xlink="http://www.w3.org/1999/xlink" x="0px" y="0px"
	 width="50px" height="50px" viewBox="0 0 50 50" enable-background="new 0 0 50 50" xml:space="preserve">
<path fill="#FFFFFF" d="M15.118,22.583H8.949v-6.94H6.553v6.94h-6.17v2.695h6.17v6.941h2.396v-6.941h6.169V22.583z"/>
<path fill="#FFFFFF" d="M31.422,27.149c0,0-0.182-0.09-0.51-0.225c2.661-2.055,4.414-5.54,4.414-9.499
	c0-6.316-4.466-11.437-9.976-11.437c-5.51,0-9.976,5.12-9.976,11.437c0,3.938,1.735,7.41,4.376,9.467
	c-0.886,0.396-1.734,0.896-2.525,1.495c0,0-5.978,4.255-6.529,12.285c0,0-0.188,1.688,0.236,2.499c0,0,0.574,0.889,1.523,0.742
	c0,0,1.365-0.098,1.453-1.977c0,0-0.037-1.92,0.617-4.003c0,0,0.577-1.936,1.666-3.505c0,0,1.41-2.296,4.017-3.755
	c0,0,2.804-1.724,6.197-1.301c0,0,2.368,0.121,4.805,1.753c0,0,3.35,1.748,5.03,7.086c0,0,0.515,1.755,0.535,3.433
	c0,0-0.224,2.114,1.619,2.282c0,0,1.62,0.135,1.601-2.294c0,0,0.085-4.449-2.398-8.564C37.596,33.07,35.37,29.021,31.422,27.149z
	 M25.348,25.604c-3.935,0-7.125-3.659-7.125-8.174c0-4.512,3.189-8.17,7.125-8.17s7.124,3.658,7.124,8.17
	C32.473,21.944,29.282,25.604,25.348,25.604z"/>
<path fill="#FFFFFF" d="M47.74,32.753c0,0-2.188-4.643-6.553-6.685l-0.149-0.106c0,0,0.974-0.845,1.432-1.488
	c0,0,2.004-2.416,2.301-5.796c0,0,0.755-3.478-1.814-7.81c0-0.001-1.325-1.98-2.867-2.928c0,0-3.15-2.083-5.116-1.211
	c0,0-0.942,0.536-0.728,1.925c0,0,0.044,1.173,2.591,1.656c0,0,2.882,0.744,4.256,4.358c0,0,1.139,2.908-0.218,5.826
	c0,0-0.943,2.223-2.642,3.147c0,0-1.783,0.877-1.509,3.118c0,0,0.052,1.506,3.454,2.784c0,0,3.066,1.54,4.852,5.202
	c0,0,1.361,2.619,1.412,5.563c0,0-0.235,2.376,1.644,2.48c0,0,1.729,0.152,1.631-2.418C49.707,40.136,49.647,36.36,47.74,32.753z"/>
</svg>
