<?xml version="1.0" encoding="utf-8"?>
<!-- Generator: Adobe Illustrator 16.0.0, SVG Export Plug-In . SVG Version: 6.00 Build 0)  -->
<!DOCTYPE svg PUBLIC "-//W3C//DTD SVG 1.1//EN" "http://www.w3.org/Graphics/SVG/1.1/DTD/svg11.dtd">
<svg version="1.1" id="图层_1" xmlns="http://www.w3.org/2000/svg" xmlns:xlink="http://www.w3.org/1999/xlink" x="0px" y="0px"
	 width="58px" height="58px" viewBox="0 0 58 58" enable-background="new 0 0 58 58" xml:space="preserve">
<path fill="#2E7D32" d="M51.184,19.349h-9.021v5.599h9.021V19.349z M51.184,26.476h-9.021v5.604h9.021V26.476z M51.184,12.223
	h-9.021v5.599h9.021V12.223z M51.184,40.477h-9.021v5.602h9.021v-5.604V40.477z M55.324,6.621H33.631
	c-0.258,0-0.508,0.052-0.734,0.149V0.721L0.721,7.133v43.732l32.177,6.414v-5.748c0.232,0.098,0.482,0.148,0.734,0.148H55.33
	c1.074,0,1.949-0.914,1.949-2.035V8.66c0-1.124-0.875-2.037-1.953-2.037L55.324,6.621z M22.419,38.439l-3.9-0.254l-2.923-7.383
	l-3.17,6.877l-3.659-0.258l4.632-8.401l-4.143-9.162l3.655-0.255l2.437,6.872h0.488l2.682-7.383l3.9-0.252l-4.875,9.673
	L22.419,38.439z M54.846,49.135H32.902v-3.059h7.311v-5.602h-7.311v-1.271h7.311v-5.598h-7.311V32.08h7.311v-5.604h-7.311v-1.527
	h7.311v-5.599h-7.311v-1.527h7.311v-5.599h-7.311V9.169h21.943v39.959V49.135z M51.186,33.607h-9.023v5.596h9.021v-5.598
	L51.186,33.607z"/>
</svg>
