<?xml version="1.0" encoding="utf-8"?>
<!-- Generator: Adobe Illustrator 16.0.0, SVG Export Plug-In . SVG Version: 6.00 Build 0)  -->
<!DOCTYPE svg PUBLIC "-//W3C//DTD SVG 1.1//EN" "http://www.w3.org/Graphics/SVG/1.1/DTD/svg11.dtd">
<svg version="1.1" id="图层_1" xmlns="http://www.w3.org/2000/svg" xmlns:xlink="http://www.w3.org/1999/xlink" x="0px" y="0px"
	 width="58px" height="58px" viewBox="0 0 58 58" enable-background="new 0 0 58 58" xml:space="preserve">
<path fill="#FF7676" d="M7.499,24.997H5.898v3.088h1.601c0.915,0,1.83-0.229,1.83-1.487C9.329,25.226,8.529,24.997,7.499,24.997z
	 M16.19,25.226h-1.486v6.518h1.83c1.144,0,2.288-0.799,2.288-3.086C18.936,26.483,18.25,25.226,16.19,25.226z"/>
<path fill="#FF7676" d="M0.408,7.384v43.118l33.168,5.945V1.552L0.408,7.384z M8.071,29.915H5.898v3.66H3.839V23.282h4.232
	c2.287,0,3.202,1.601,3.202,3.317C11.388,28.2,10.473,29.915,8.071,29.915z M16.649,33.574h-4.003V23.282h4.003
	c2.402,0,4.231,1.715,4.231,5.031C20.995,31.402,19.508,33.574,16.649,33.574z M29,25.226h-4.574v2.401h3.888v1.715h-3.888v4.232
	h-2.059V23.282H29V25.226z"/>
<path fill="#FF7676" d="M35.863,7.27v5.718h17.154v2.631H35.863v3.202h17.154v2.517H35.863v3.202h17.154v2.516H35.863v3.202h17.154
	v2.631H35.863v3.088h17.154v2.631H35.863v3.201h17.154v2.518H35.863v6.404h21.729V7.27H35.863z"/>
</svg>
