<?xml version="1.0" encoding="utf-8"?>
<!-- Generator: Adobe Illustrator 16.0.0, SVG Export Plug-In . SVG Version: 6.00 Build 0)  -->
<!DOCTYPE svg PUBLIC "-//W3C//DTD SVG 1.1//EN" "http://www.w3.org/Graphics/SVG/1.1/DTD/svg11.dtd">
<svg version="1.1" id="图层_1" xmlns="http://www.w3.org/2000/svg" xmlns:xlink="http://www.w3.org/1999/xlink" x="0px" y="0px"
	 width="58px" height="58px" viewBox="0 0 58 58" enable-background="new 0 0 58 58" xml:space="preserve">
<path fill="#FBC02D" d="M35.362,7.765v3.754h17.337v2.407H35.362v3.897h17.337v2.407H35.362v3.839h17.337v2.407H35.362v3.839h17.337
	v2.41H35.362v3.838h17.337v2.408H35.362v3.811h17.337v2.408H35.362v4.986h22.294V7.765H35.362z"/>
<path fill="#FBC02D" d="M0.344,51.551l32.296,6.105V0.343L0.344,6.447 M23.728,28.942c-1.204,1.004-2.923,1.519-5.158,1.519h-4.298
	v7.422H9.972V17.25h8.855c2.034,0,3.667,0.544,4.872,1.604c1.203,1.061,1.834,2.723,1.834,4.929
	C25.533,26.22,24.931,27.94,23.728,28.942z M20.432,21.52c-0.544-0.458-1.318-0.688-2.292-0.688h-3.868v6.075h3.897
	c0.974,0,1.748-0.258,2.292-0.745c0.544-0.487,0.831-1.29,0.831-2.35C21.263,22.752,20.976,21.979,20.432,21.52z"/>
</svg>
