<?xml version="1.0" encoding="utf-8"?>
<!-- Generator: Adobe Illustrator 16.0.0, SVG Export Plug-In . SVG Version: 6.00 Build 0)  -->
<!DOCTYPE svg PUBLIC "-//W3C//DTD SVG 1.1//EN" "http://www.w3.org/Graphics/SVG/1.1/DTD/svg11.dtd">
<svg version="1.1" id="图层_1" xmlns="http://www.w3.org/2000/svg" xmlns:xlink="http://www.w3.org/1999/xlink" x="0px" y="0px"
	 width="58px" height="58px" viewBox="0 0 58 58" enable-background="new 0 0 58 58" xml:space="preserve">
<path fill="#74B4D9" d="M57.697,7.613h-22.48v3.827h17.355v2.391H35.217v3.963h17.355v2.391H35.217v3.827h17.355v2.392H35.217v3.894
	h17.355v2.392H35.217v3.827h17.355v2.391H35.217v3.896h17.355v2.392H35.217v5.057h22.48V7.613z M0.301,6.321v45.077l32.32,6.3V0.302
	L0.301,6.321z M22.239,39.494l-4.601-0.483l-2.877-12.35L12.101,38.43l-3.745-0.394L4.171,21.088l3.367-0.354l2.643,11.368
	l2.584-11.917l4.131-0.434l2.917,12.666l3.583-13.349l5.353-0.563L22.239,39.494L22.239,39.494z"/>
</svg>
