<?xml version="1.0" encoding="utf-8"?>
<!-- Generator: Adobe Illustrator 16.0.0, SVG Export Plug-In . SVG Version: 6.00 Build 0)  -->
<!DOCTYPE svg PUBLIC "-//W3C//DTD SVG 1.1//EN" "http://www.w3.org/Graphics/SVG/1.1/DTD/svg11.dtd">
<svg version="1.1" id="图层_1" xmlns="http://www.w3.org/2000/svg" xmlns:xlink="http://www.w3.org/1999/xlink" x="0px" y="0px"
	 width="30px" height="30px" viewBox="0 0 30 30" enable-background="new 0 0 30 30" xml:space="preserve">
<path fill="#080808" d="M28.48,4.647l-4.182-3.672c-0.309-0.267-0.703-0.413-1.11-0.411c-0.544,0-1.07,0.244-1.442,0.669
	L9.947,14.668c-0.084,0.096-0.146,0.21-0.178,0.334L7.655,23.02c-0.115,0.443,0.151,0.897,0.595,1.014
	c0.172,0.043,0.355,0.032,0.521-0.036l7.677-3.13c0.119-0.049,0.226-0.124,0.31-0.221L28.557,7.211
	c0.317-0.36,0.492-0.815,0.493-1.281C29.053,5.441,28.846,4.974,28.48,4.647z M27.31,6.119L15.643,19.407l-5.961,2.432l1.641-6.225
	L22.989,2.327c0.051-0.06,0.122-0.098,0.199-0.105l0.021,0.002l4.175,3.668C27.398,5.92,27.396,6.023,27.31,6.119z"/>
<path fill="#080808" d="M26.363,25.203c0.073,2.214-1.255,2.714-2.829,2.714H5.28c-1.571,0-2.883-0.414-2.856-2.857V7.46
	c0-1.57,0.659-2.966,2.856-2.855h7.657V2.89H3.565c-1.571,0-2.858,1.286-2.858,2.856v21.083c0,1.571,1.287,2.856,2.858,2.856h21.738
	c1.57,0,2.858-1.285,2.858-2.856v-8.141l-1.799,0.028V25.203z"/>
</svg>
