<?xml version="1.0" encoding="utf-8"?>
<!-- Generator: Adobe Illustrator 16.0.0, SVG Export Plug-In . SVG Version: 6.00 Build 0)  -->
<!DOCTYPE svg PUBLIC "-//W3C//DTD SVG 1.1//EN" "http://www.w3.org/Graphics/SVG/1.1/DTD/svg11.dtd">
<svg version="1.1" id="图层_1" xmlns="http://www.w3.org/2000/svg" xmlns:xlink="http://www.w3.org/1999/xlink" x="0px" y="0px"
	 width="50px" height="50px" viewBox="0 0 50 50" enable-background="new 0 0 50 50" xml:space="preserve">
<path fill="#FFFFFF" d="M7.101,18.666c3.719,0,6.73,3.011,6.73,6.73c0,3.719-3.011,6.729-6.73,6.729
	c-3.719,0-6.729-3.011-6.729-6.729C0.371,21.676,3.388,18.666,7.101,18.666z M42.885,18.666c3.72,0,6.73,3.011,6.73,6.73
	c0,3.719-3.011,6.729-6.73,6.729s-6.729-3.011-6.729-6.729C36.156,21.676,39.165,18.666,42.885,18.666z M24.993,18.666
	c3.72,0,6.729,3.011,6.729,6.73c0,3.719-3.01,6.729-6.729,6.729c-3.719,0-6.729-3.011-6.729-6.729
	C18.264,21.676,21.274,18.666,24.993,18.666z"/>
</svg>
