<?xml version="1.0" standalone="no"?><!DOCTYPE svg PUBLIC "-//W3C//DTD SVG 1.1//EN" "http://www.w3.org/Graphics/SVG/1.1/DTD/svg11.dtd"><svg class="icon" width="64px" height="64.00px" viewBox="0 0 1024 1024" version="1.1" xmlns="http://www.w3.org/2000/svg"><path fill="#1296db" d="M116.065103 423.724138h791.869794C962.312828 423.724138 1006.344828 462.989241 1006.344828 511.717517v395.22869c0 48.622345-44.385103 88.02869-98.409931 88.02869H116.065103C61.687172 994.974897 17.655172 955.709793 17.655172 906.946207V511.717517C17.655172 463.130483 62.040276 423.724138 116.065103 423.724138zM88.275862 532.974345v346.465103C88.275862 900.908138 109.144276 918.068966 134.920828 918.068966H889.114483C914.537931 918.068966 935.724138 900.731586 935.724138 879.439448v-346.465103c0-21.46869-20.868414-38.629517-46.644966-38.629517H134.885517C109.462069 494.344828 88.275862 511.682207 88.275862 532.974345z m241.664-181.142069V263.344552c0-121.502897 89.193931-219.418483 197.737931-219.418483 108.57931 0 197.737931 98.162759 197.737931 219.418483v132.413793h43.961379v-132.413793C769.377103 118.642759 661.504 0 527.677793 0 393.886897 0 286.013793 118.430897 286.013793 263.344552v132.413793h43.926069V351.867586zM781.982897 765.881379a119.525517 119.525517 0 1 1 0-106.248827h-80.613518a52.965517 52.965517 0 0 0-53.071448 53.142069 52.965517 52.965517 0 0 0 53.071448 53.106758h80.613518z m-212.250483-92.936827c21.892414 0 39.582897 17.655172 39.582896 39.830069 0 21.998345-17.584552 39.830069-39.582896 39.830069H303.668966c-21.892414 0-39.618207-17.655172-39.618207-39.830069 0-21.998345 17.584552-39.830069 39.618207-39.830069h266.063448z"  /></svg>