<?xml version="1.0" standalone="no"?><!DOCTYPE svg PUBLIC "-//W3C//DTD SVG 1.1//EN" "http://www.w3.org/Graphics/SVG/1.1/DTD/svg11.dtd"><svg class="icon" width="64px" height="64.00px" viewBox="0 0 1024 1024" version="1.1" xmlns="http://www.w3.org/2000/svg"><path d="M512 512m-418.909091 0a418.909091 418.909091 0 1 0 837.818182 0 418.909091 418.909091 0 1 0-837.818182 0Z" fill="#1DA1F2" /><path d="M512 349.090909c32.581818 0 55.854545-27.927273 55.854545-55.854545s-27.927273-55.854545-55.854545-55.854546-55.854545 27.927273-55.854545 55.854546 23.272727 55.854545 55.854545 55.854545z m-46.545455 116.363636c0-27.927273 18.618182-46.545455 46.545455-46.545454s46.545455 23.272727 46.545455 46.545454v279.272728c0 27.927273-18.618182 46.545455-46.545455 46.545454s-46.545455-23.272727-46.545455-46.545454v-279.272728z" fill="#A0D8FD" /></svg>