<?xml version="1.0" standalone="no"?><!DOCTYPE svg PUBLIC "-//W3C//DTD SVG 1.1//EN" "http://www.w3.org/Graphics/SVG/1.1/DTD/svg11.dtd"><svg class="icon" width="64px" height="64.00px" viewBox="0 0 1024 1024" version="1.1" xmlns="http://www.w3.org/2000/svg"><path fill="#1296db" d="M705.024 706.56c-11.776-13.824-40.96-45.056-73.216-54.272-9.216-2.56-15.872-10.24-17.408-19.968-1.536-9.728 2.048-18.944 9.728-24.064 53.248-38.4 81.92-100.864 76.8-166.4-3.584-42.496-22.016-82.944-52.224-114.176-30.208-31.232-70.144-50.688-112.128-55.296-7.168-1.024-14.336-1.024-21.504-1.024-102.4 0-186.368 83.456-186.368 186.368 0 58.88 28.16 114.688 75.776 150.016 7.68 5.632 11.264 14.848 9.728 24.576-1.536 9.728-8.704 17.408-17.92 19.968-32.256 9.216-64 41.472-76.8 55.296-3.072 3.584-3.072 8.704-3.072 8.704 0 4.608 3.584 8.704 8.704 8.704h373.248c4.608 0 8.704-3.584 8.704-8.704 0-1.536 0.512-6.144-2.048-9.728zM921.6 541.184c-7.68 0-15.36-3.072-20.48-8.704l-73.216-73.216c-11.264-11.264-11.264-29.696 0-41.472 11.264-11.264 29.696-11.264 41.472 0L921.6 470.528l52.224-52.224c11.264-11.264 30.208-11.264 41.472 0 11.264 11.264 11.264 29.696 0 41.472L942.08 532.48c-5.12 5.632-12.8 8.704-20.48 8.704zM29.184 614.4c-7.68 0-14.848-3.072-20.48-8.704-11.264-11.264-11.264-29.696 0-41.472L81.92 491.52c11.264-11.264 29.696-11.264 41.472 0l73.216 73.216c11.264 11.264 11.264 29.696 0 41.472-11.264 11.264-29.696 11.264-41.472 0L102.4 553.472 50.176 605.696c-6.144 5.632-13.312 8.704-20.992 8.704z"  /><path fill="#1296db" d="M921.6 541.184c-16.384 0-29.184-13.312-29.184-29.184 0-209.92-170.496-380.416-380.416-380.416-167.424 0-313.344 107.52-363.008 267.264-4.608 15.36-20.992 24.064-36.864 19.456-15.36-4.608-24.064-20.992-19.456-36.864 27.136-87.552 82.944-165.888 156.672-221.184 76.288-56.832 166.912-87.04 262.656-87.04 242.176 0 438.784 197.12 438.784 438.784 0 16.384-12.8 29.184-29.184 29.184zM512 950.784c-242.176 0-438.784-197.12-438.784-438.784 0-16.384 13.312-29.184 29.184-29.184 16.384 0 29.184 13.312 29.184 29.184 0 209.92 170.496 380.416 380.416 380.416 167.424 0 313.344-107.52 363.008-267.264 4.608-15.36 20.992-24.064 36.864-19.456 15.36 4.608 24.064 20.992 19.456 36.864-27.136 87.552-82.944 165.888-156.672 221.184-76.288 56.832-167.424 87.04-262.656 87.04z"  /></svg>