<?xml version="1.0" standalone="no"?><!DOCTYPE svg PUBLIC "-//W3C//DTD SVG 1.1//EN" "http://www.w3.org/Graphics/SVG/1.1/DTD/svg11.dtd"><svg class="icon" width="64px" height="64.00px" viewBox="0 0 1024 1024" version="1.1" xmlns="http://www.w3.org/2000/svg"><path fill="#1296db" d="M606.624 722.304c-26.624 0-48.192 21.344-48.192 47.712 0 26.304 21.568 47.68 48.192 47.68 26.592 0 48.128-21.376 48.128-47.68C654.752 743.648 633.216 722.304 606.624 722.304zM320.768 393.92l8.288-30.72-124.064-32.896-8.288 30.688L320.768 393.92zM345.664 301.76 221.6 268.864l-8.288 30.72 124.064 32.896L345.664 301.76zM418.24 156.448 232.16 107.104C215.04 102.56 197.44 112.608 192.832 129.568L1.728 835.936c-4.608 16.96 5.536 34.4 22.688 38.944l186.048 49.344c17.152 4.576 34.752-5.504 39.328-22.432L440.96 195.392C445.536 178.432 435.36 160.992 418.24 156.448zM248.416 784.16c-13.76 50.88-66.592 81.056-117.952 67.392-51.424-13.664-81.888-65.92-68.096-116.8 13.76-50.88 66.56-81.088 117.952-67.424C231.68 680.928 262.176 733.248 248.416 784.16zM285.28 647.808l-186.048-49.376L198.912 229.92l186.08 49.376L285.28 647.808zM167.328 715.328c-25.696-6.88-52.096 8.256-58.976 33.728-6.88 25.44 8.352 51.552 34.016 58.368 25.728 6.816 52.128-8.256 59.008-33.696C208.256 748.288 193.024 722.08 167.328 715.328zM670.816 277.216 542.4 277.216l0 31.776 128.416 0L670.816 277.216zM959.776 277.216l-128.448 0 0 31.776 128.448 0L959.776 277.216zM959.776 340.768l-128.448 0 0 31.808 128.448 0L959.776 340.768zM670.816 340.768 542.4 340.768l0 31.808 128.416 0L670.816 340.768zM991.872 118.24l-192.64 0c-17.76 0-32.128 14.24-32.128 31.808l0 731.296c0 17.536 14.368 31.776 32.128 31.776l192.64 0c17.76 0 32.128-14.24 32.128-31.776L1024 150.016C1024 132.48 1009.632 118.24 991.872 118.24zM895.552 865.408c-53.184 0-96.32-42.688-96.32-95.36 0-52.704 43.136-95.392 96.32-95.392s96.32 42.688 96.32 95.392C991.872 822.72 948.736 865.408 895.552 865.408zM991.872 626.944l-192.64 0L799.232 245.408l192.64 0L991.872 626.944zM959.776 404.384l-128.448 0 0 31.808 128.448 0L959.776 404.384zM895.552 722.304c-26.624 0-48.192 21.344-48.192 47.712 0 26.304 21.568 47.68 48.192 47.68s48.192-21.376 48.192-47.68C943.744 743.648 922.176 722.304 895.552 722.304zM670.816 404.384 542.4 404.384l0 31.808 128.416 0L670.816 404.384zM702.944 118.24l-192.672 0c-17.728 0-32.064 14.24-32.064 31.808l0 731.296c0 17.536 14.336 31.776 32.064 31.776l192.672 0c17.76 0 32.096-14.24 32.096-31.776L735.04 150.016C735.04 132.48 720.672 118.24 702.944 118.24zM606.624 863.392c-53.184 0-96.352-42.688-96.352-95.36s43.168-95.36 96.352-95.36 96.32 42.688 96.32 95.36S659.808 863.392 606.624 863.392zM702.944 626.944l-192.672 0L510.272 245.408l192.672 0L702.944 626.944zM180.064 422.432l124.064 32.928 8.288-30.72-124.064-32.928L180.064 422.432z" /></svg>