<?xml version="1.0" standalone="no"?><!DOCTYPE svg PUBLIC "-//W3C//DTD SVG 1.1//EN" "http://www.w3.org/Graphics/SVG/1.1/DTD/svg11.dtd"><svg class="icon" width="64px" height="64.00px" viewBox="0 0 1024 1024" version="1.1" xmlns="http://www.w3.org/2000/svg"><path fill="#1296db" d="M914.246237 1023.971658H146.260408a73.179297 73.179297 0 0 1-73.150955-73.150955v-146.273568h73.150955a36.617991 36.617991 0 0 0 36.561307-36.561306v-36.617991a36.561306 36.561306 0 0 0-36.561307-36.561306h-73.122613v-73.094271h73.122613a36.617991 36.617991 0 0 0 36.561307-36.561306v-36.589649a36.561306 36.561306 0 0 0-36.561307-36.561306h-73.122613v-73.150955H146.232066a36.589648 36.589648 0 0 0 36.617991-36.561306v-36.532965a36.589648 36.589648 0 0 0-36.617991-36.61799H73.137795V255.985829H146.232066a36.617991 36.617991 0 0 0 36.617991-36.561306v-36.561307A36.589648 36.589648 0 0 0 146.232066 146.273568H73.137795v-73.122613A73.122613 73.122613 0 0 1 146.260408 0.14171h621.712261a73.122613 73.122613 0 0 1 73.150955 73.150955h73.150955a73.122613 73.122613 0 0 1 73.150955 73.150955v804.405425a73.179297 73.179297 0 0 1-73.150955 73.150955zM745.298991 228.012178l-64.960088-36.447938c-15.53147-8.701024-42.258068-1.785552-51.214172 13.292444L347.744383 678.424799l130.005203 72.782508 281.266981-473.313036c8.956103-15.077996 1.785552-41.0677-13.717576-49.797066z m-416.175367 481.815666v131.223914l129.891835-58.271354-129.891835-72.867534z m585.122613-527.163023c0-73.689455-32.735123-66.093772-73.150955-66.093772v724.565735a73.179297 73.179297 0 0 1-73.150955 73.150955H109.67076a73.179297 73.179297 0 0 0 73.150955 73.150955h658.301909c70.855245 0 73.150955-32.791807 73.150955-73.150955V182.863216zM146.260408 219.424523H36.548147v-36.561307h109.712261v36.561307z m0 182.863216H36.548147v-36.532965h109.712261v36.561307z m0 182.863216H36.548147v-36.589649h109.712261v36.561307z m0 182.863216H36.548147v-36.646333h109.712261v36.561307z"  /></svg>