<?xml version="1.0" standalone="no"?><!DOCTYPE svg PUBLIC "-//W3C//DTD SVG 1.1//EN" "http://www.w3.org/Graphics/SVG/1.1/DTD/svg11.dtd"><svg class="icon" width="64px" height="64.00px" viewBox="0 0 1024 1024" version="1.1" xmlns="http://www.w3.org/2000/svg"><path d="M114.688 340.992v565.76h794.624V340.992H114.688zM686.08 591.36c0 39.424-32.256 71.68-71.68 71.68H417.28c-39.424 0-71.68-32.256-71.68-71.68s32.256-71.68 71.68-71.68H614.4c39.424 0 71.68 32.256 71.68 71.68z" fill="#03AEF9" /><path d="M944.128 103.424H79.872C49.664 103.424 25.6 128 25.6 157.696v145.92c0 29.696 24.064 54.272 54.272 54.272H97.28v494.592c0 39.936 32.256 72.192 72.192 72.192h684.544c39.936 0 72.192-32.256 72.192-72.192V357.888h17.408c30.208 0 54.272-24.576 54.272-55.808V156.16c0.512-28.672-24.064-52.736-53.76-52.736z m-52.224 748.544c0 20.48-16.896 37.376-37.376 37.376H169.472c-20.48 0-37.376-16.896-37.376-37.376V358.4h759.808v493.568z m71.68-549.888c0 11.776-8.704 20.992-19.456 20.992H79.872c-10.752 0-19.456-8.704-19.456-19.456V157.696c0-10.752 8.704-19.456 19.456-19.456h864.256c11.264 0 19.456 9.216 19.456 17.92V302.08z" fill="#6A6E72" /><path d="M406.528 679.936h210.944c50.688 0 91.648-40.96 91.648-91.648s-40.96-91.648-91.648-91.648H406.528c-50.688 0-91.648 40.96-91.648 91.648s40.96 91.648 91.648 91.648z m0-148.48h210.944c31.232 0 56.832 25.6 56.832 56.832s-25.6 56.832-56.832 56.832H406.528c-31.232 0-56.832-25.6-56.832-56.832s25.6-56.832 56.832-56.832z" fill="#6A6E72" /></svg>