<?xml version="1.0" encoding="utf-8"?>
<!-- Generator: Adobe Illustrator 16.0.0, SVG Export Plug-In . SVG Version: 6.00 Build 0)  -->
<!DOCTYPE svg PUBLIC "-//W3C//DTD SVG 1.1//EN" "http://www.w3.org/Graphics/SVG/1.1/DTD/svg11.dtd">
<svg version="1.1" id="图层_1" xmlns="http://www.w3.org/2000/svg" xmlns:xlink="http://www.w3.org/1999/xlink" x="0px" y="0px"
	 width="98px" height="98px" viewBox="0 0 98 98" enable-background="new 0 0 98 98" xml:space="preserve">
<path fill="#74B4D9" d="M49.302,0.747c-26.685,0-48.318,21.604-48.318,48.252c0,26.65,21.633,48.254,48.318,48.254
	c26.684,0,48.317-21.604,48.317-48.254C97.619,22.351,75.985,0.747,49.302,0.747z M80.483,80.141
	c-4.05,4.045-8.77,7.22-14.018,9.436c-5.437,2.297-11.209,3.463-17.164,3.463c-5.955,0-11.73-1.166-17.165-3.463
	c-5.249-2.216-9.967-5.391-14.018-9.436c-4.051-4.049-7.231-8.758-9.452-14.001c-2.298-5.426-3.463-11.194-3.463-17.141
	c0-5.947,1.166-11.713,3.463-17.14c2.221-5.245,5.401-9.955,9.452-14c4.051-4.047,8.769-7.223,14.018-9.44
	C37.571,6.125,43.346,4.96,49.302,4.96c5.955,0,11.728,1.165,17.164,3.459c5.248,2.217,9.968,5.393,14.018,9.44
	c4.052,4.045,7.231,8.755,9.453,14c2.298,5.426,3.461,11.193,3.461,17.14c0,5.946-1.163,11.715-3.461,17.141
	C87.715,71.383,84.535,76.092,80.483,80.141z"/>
<path fill="#74B4D9" d="M71.812,46.892h-20.4V26.386c0-1.164-0.943-2.107-2.109-2.107c-1.166,0-2.111,0.943-2.111,2.107v20.506
	H26.792c-1.165,0-2.11,0.945-2.11,2.107c0,1.163,0.945,2.108,2.11,2.108h20.398v20.234c0,1.165,0.945,2.106,2.111,2.106
	c1.166,0,2.109-0.941,2.109-2.106V51.107h20.4c1.165,0,2.109-0.945,2.109-2.108C73.921,47.836,72.977,46.892,71.812,46.892z"/>
</svg>
