<?xml version="1.0" standalone="no"?><!DOCTYPE svg PUBLIC "-//W3C//DTD SVG 1.1//EN" "http://www.w3.org/Graphics/SVG/1.1/DTD/svg11.dtd"><svg class="icon" width="200px" height="156.46px" viewBox="0 0 1309 1024" version="1.1" xmlns="http://www.w3.org/2000/svg"><path fill="#000000" d="M1095.08629 197.815734 399.012722 199.222101C372.662187 199.276191 349.051568 214.187304 339.529518 236.725265 336.705041 243.414528 334.962995 250.698798 334.962995 258.542006L334.726212 394.130352 334.607821 464.250448 334.455603 551.535445 334.337212 621.655541 334.066603 774.535009C334.066603 776.103652 334.43869 777.528053 334.557082 779.060634 337.043302 811.082559 365.440313 833.854913 398.099416 833.78279L1094.172985 832.376422C1128.337351 832.304299 1158.155059 807.422396 1158.222711 773.074551L1159.15293 257.081543C1159.169843 222.625519 1129.301396 197.74361 1095.08629 197.815734L1095.08629 197.815734 1095.08629 197.815734ZM1107.449731 772.966366C1107.449731 772.876214 1107.179122 773.399097 1105.826076 774.535009 1103.153818 776.770776 1098.908638 778.267295 1094.054593 778.285323L397.981025 779.691696C393.143893 779.709724 388.949453 778.231233 386.31102 776.031528 385.008714 774.949706 384.771931 774.498947 384.771931 774.625161L385.093279 597.368639C392.348979 597.56697 399.638505 594.59196 404.813898 588.317394L540.625704 423.736218 778.592347 712.348279C788.689442 724.590894 806.58345 724.608927 816.697452 712.348279L952.509264 547.767103 1087.66146 711.717217C1092.870679 718.027844 1100.227857 721.020882 1107.534296 720.768455L1107.449731 772.966366 1107.449731 772.966366 1107.449731 772.966366ZM1173.156938 30.530002 228.292375 30.530002C153.671993 30.530002 92.987961 95.114775 92.987961 174.790958L92.987961 236.725265 92.987961 326.877093 22.037703 326.877093C9.792654 326.877093 0 337.442884 0 350.49687 0 363.622975 9.860306 374.116648 22.037703 374.116648L92.987961 374.116648 92.987961 394.148386 92.987961 464.268476 92.987961 484.300214 22.037703 484.300214C9.792654 484.300214 0 494.866005 0 507.919991 0 521.046101 9.860306 531.539775 22.037703 531.539775L92.987961 531.539775 92.987961 551.571507 92.987961 621.691597 92.987961 641.723335 22.037703 641.723335C9.792654 641.723335 0 652.289132 0 665.343113 0 678.469222 9.860306 688.96289 22.037703 688.96289L92.987961 688.96289 92.987961 779.114724 92.987961 862.252737C92.987961 942.10923 153.570509 1006.513692 228.292375 1006.513692L1173.140025 1006.513692C1247.760407 1006.513692 1308.444439 941.92892 1308.444439 862.252737L1308.444439 174.790958C1308.461352 94.934465 1247.878798 30.530002 1173.156938 30.530002L1173.156938 30.530002ZM1107.652688 654.038073 1011.89099 537.86843 971.570273 488.952047C961.473178 476.691399 943.57917 476.691399 933.465162 488.934019L893.093712 537.850402 797.653356 653.515196 559.686713 364.903134C549.589623 352.660514 531.695616 352.642486 521.581608 364.903134L385.194758 530.169463 385.685237 258.614124C385.685237 258.704276 385.955846 258.163371 387.325804 257.027453 389.998063 254.791691 394.243243 253.295167 399.097287 253.277138L777.239302 252.519862 1079.779977 251.906833 1095.170856 251.870771C1099.991074 251.852743 1104.202422 253.331228 1106.823947 255.530934 1108.126254 256.63079 1108.363036 257.081543 1108.363036 256.955335L1107.652688 654.038073 1107.652688 654.038073ZM1257.722197 862.198647C1257.722197 911.962453 1219.786223 952.368503 1173.156938 952.368503L228.292375 952.368503C181.527785 952.368503 143.727115 912.106695 143.727115 862.198647L143.727115 779.060634 143.727115 688.9088 252.867038 688.9088C265.112087 688.9088 274.904747 678.343009 274.904747 665.289023 274.904747 652.162918 265.044434 641.669245 252.867038 641.669245L143.727115 641.669245 143.727115 621.637507 143.727115 551.517417 143.727115 531.485679 252.867038 531.485679C265.112087 531.485679 274.904747 520.919888 274.904747 507.865902 274.904747 494.739797 265.044434 484.246124 252.867038 484.246124L143.727115 484.246124 143.727115 464.214386 143.727115 394.094296 143.727115 374.062558 252.867038 374.062558C265.112087 374.062558 274.904747 363.496761 274.904747 350.44278 274.904747 337.316676 265.044434 326.823003 252.867038 326.823003L143.727115 326.823003 143.727115 236.671169 143.727115 174.736868C143.727115 124.973056 181.66309 84.567006 228.292375 84.567006L1173.140025 84.567006C1219.904614 84.567006 1257.705284 124.828814 1257.705284 174.736868L1257.705284 862.198647 1257.722197 862.198647 1257.722197 862.198647ZM944.644693 308.774605C908.907412 299.34472 872.713483 322.351468 863.800303 360.125087 854.887128 397.934763 876.637309 436.177169 912.374591 445.607049 948.111866 455.036928 984.305801 432.048213 993.218975 394.238538 1002.132156 356.464919 980.381969 318.204484 944.644693 308.774605L944.644693 308.774605Z" /></svg>