<?xml version="1.0" standalone="no"?><!DOCTYPE svg PUBLIC "-//W3C//DTD SVG 1.1//EN" "http://www.w3.org/Graphics/SVG/1.1/DTD/svg11.dtd"><svg class="icon" width="200px" height="200.00px" viewBox="0 0 1024 1024" version="1.1" xmlns="http://www.w3.org/2000/svg"><path fill="#000000" d="M1020.6162488888888 958.8315022222223H0.5791288888888744V66.26190222222226h1020.03712v892.5695999999999z m-63.69393777777778-63.6928V130.0184177777778H64.2730666666667v765.1191466666666h892.6492444444444"  /><path fill="#000000" d="M510.59712 671.9613155555556c-105.65859555555556 0-191.30026666666666-85.64167111111111-191.30026666666666-191.28433777777778 0-105.61080888888888 85.64167111111111-191.2376888888889 191.30026666666666-191.2376888888889s191.30140444444444 85.62688 191.30140444444444 191.2376888888889c-0.001137777777777778 105.64266666666666-85.6428088888889 191.28433777777778-191.30140444444444 191.28433777777778z m0-63.75651555555556c70.32604444444445 0 127.48117333333333-57.21884444444444 127.48117333333333-127.5278222222222 0-70.27712-57.15626666666666-127.49596444444444-127.48117333333333-127.49596444444444s-127.48117333333333 57.21884444444444-127.48117333333333 127.49596444444444c0 70.30784 57.15626666666666 127.5278222222222 127.48117333333333 127.5278222222222"  /><path fill="#000000" d="M287.48231111111113 895.1091200000001h-63.755377777777774c0-158.45717333333334 128.4141511111111-286.90432 286.8701866666667-286.90432 158.4583111111111 0 286.87359999999995 128.44714666666667 286.87359999999995 286.90432h-63.72579555555556c0-123.03018666666667-100.11647999999998-223.14780444444443-223.14666666666665-223.14780444444443S287.48231111111113 772.0789333333335 287.48231111111113 895.1091200000001"  /></svg>