<?xml version="1.0" standalone="no"?><!DOCTYPE svg PUBLIC "-//W3C//DTD SVG 1.1//EN" "http://www.w3.org/Graphics/SVG/1.1/DTD/svg11.dtd"><svg t="1502557244958" class="icon" style="" viewBox="0 0 1024 1024" version="1.1" xmlns="http://www.w3.org/2000/svg" p-id="1425" xmlns:xlink="http://www.w3.org/1999/xlink" width="200" height="200"><defs><style type="text/css"></style></defs><path d="M68.416 273.344 68.416 752.96C68.416 797.76 77.696 806.272 122.88 806.272L740.16 806.272C784.96 806.272 794.624 798.144 794.624 752.96L794.624 273.344C794.624 229.632 786.048 220.032 740.16 220.032L122.88 220.032C77.824 220.032 68.416 227.648 68.416 273.344L68.416 273.344ZM709.12 681.92 154.304 681.92C214.912 595.392 322.752 451.136 350.144 451.136 376.704 451.136 466.752 567.68 507.392 608.704 507.392 608.704 559.68 540.352 587.072 540.352 615.04 540.352 708.16 681.216 709.12 681.92L709.12 681.92ZM546.048 379.904C546.048 343.68 576 314.368 613.056 314.368 650.112 314.368 680.064 343.68 680.064 379.904 680.064 416.128 650.112 445.44 613.056 445.44 576 445.44 546.048 416.128 546.048 379.904L546.048 379.904ZM408.96 187.84 302.784 168.128C267.584 161.6 253.568 163.968 244.992 187.84L408.96 187.84 408.96 187.84ZM909.248 280.768 826.112 265.344C826.176 267.328 826.176 269.248 826.176 271.232L826.176 753.6C826.176 776 824.64 801.344 806.592 818.688 788.992 835.52 763.52 836.928 740.992 836.928L690.88 836.928 797.504 856.768C841.6 864.96 852.608 858.688 861.184 814.336L952.576 343.04C960.896 300.16 954.368 289.152 909.248 280.768L909.248 280.768Z" p-id="1426" fill="#2c2c2c"></path></svg>