<?xml version="1.0" standalone="no"?><!DOCTYPE svg PUBLIC "-//W3C//DTD SVG 1.1//EN" "http://www.w3.org/Graphics/SVG/1.1/DTD/svg11.dtd"><svg t="1502556839980" class="icon" style="" viewBox="0 0 1106 1024" version="1.1" xmlns="http://www.w3.org/2000/svg" p-id="1020" xmlns:xlink="http://www.w3.org/1999/xlink" width="216.015625" height="200"><defs><style type="text/css"></style></defs><path d="M979.626667 290.133333 911.36 290.133333 911.36 358.4C911.36 377.2416 896.068267 392.533333 877.226667 392.533333 858.385067 392.533333 843.093333 377.2416 843.093333 358.4L843.093333 290.133333 774.826667 290.133333C755.985067 290.133333 740.693333 274.8416 740.693333 256 740.693333 237.1584 755.985067 221.866667 774.826667 221.866667L843.093333 221.866667 843.093333 153.6C843.093333 134.7584 858.385067 119.466667 877.226667 119.466667 896.068267 119.466667 911.36 134.7584 911.36 153.6L911.36 221.866667 979.626667 221.866667C998.468267 221.866667 1013.76 237.1584 1013.76 256 1013.76 274.8416 998.468267 290.133333 979.626667 290.133333ZM774.826667 409.6C774.826667 437.8624 751.889067 460.8 723.626667 460.8 695.364267 460.8 672.426667 437.8624 672.426667 409.6 672.426667 381.3376 695.364267 358.4 723.626667 358.4 751.889067 358.4 774.826667 381.3376 774.826667 409.6ZM638.293333 290.133333 160.426667 290.133333 160.426667 765.8496C160.494933 765.610667 235.144533 430.933333 363.076267 430.933333 447.351467 430.933333 533.060267 689.7664 586.478933 768 586.478933 768 628.360533 598.4256 700.6208 597.333333 772.096 596.2752 808.96 765.8496 808.96 765.8496L843.093333 765.8496 843.093333 563.2C843.093333 544.3584 858.385067 529.066667 877.226667 529.066667 896.068267 529.066667 911.36 544.3584 911.36 563.2L911.36 836.266667C911.36 873.984 880.776533 904.533333 843.093333 904.533333L160.426667 904.533333C122.709333 904.533333 92.16 873.984 92.16 836.266667L92.16 290.133333C92.16 252.416 122.709333 221.866667 160.426667 221.866667L638.293333 221.866667C657.134933 221.866667 672.426667 237.1584 672.426667 256 672.426667 274.8416 657.134933 290.133333 638.293333 290.133333Z" p-id="1021" fill="#2c2c2c"></path></svg>