<?xml version="1.0" standalone="no"?><!DOCTYPE svg PUBLIC "-//W3C//DTD SVG 1.1//EN" "http://www.w3.org/Graphics/SVG/1.1/DTD/svg11.dtd"><svg class="icon" width="200px" height="186.35px" viewBox="0 0 1099 1024" version="1.1" xmlns="http://www.w3.org/2000/svg"><path fill="#000000" d="M634.14 762.38c0-29 4.7-56.7 13.6-82.1l-530.6 0c81-117.6 224-313.8 260.6-313.8 35.5 0 155.4 158.4 209.2 214.5 0 0 69.7-92.8 106.4-92.8 13.6 0 37.8 24.8 63.8 56.1 38.4-23 83.9-36.6 131.8-36.6 28.4 0 55 4.7 80.4 13l0-395.9c0-59.7-11.2-72.7-72.7-72.7l-821.4 0c-59.7-0.6-72.1 10-72.1 72.1l0 652.4c0 60.9 12.4 72.7 72.7 72.7l573.8 0C639.44 821.98 634.14 792.48 634.14 762.38zM728.14 179.68c49 0 89.2 39.6 89.2 89.2 0 49-39.6 89.2-89.2 89.2-49.6 0-89.2-39.6-89.2-89.2C638.84 219.88 678.44 179.68 728.14 179.68zM871.74 837.98l0 8.9c0 5.3 7.1 13 17.7 13s17.1-7.7 17.1-13l0-8.9c10-5.9 16.5-17.1 16.5-29 0-18.9-15.4-33.7-33.7-33.7-18.9 0-33.7 15.4-33.7 33.7C855.14 820.88 861.64 831.48 871.74 837.98zM889.44 553.78c-115.2 0-208 93.4-208 208 0 115.2 93.4 208 208 208 115.2 0 208-93.4 208-208S1004.04 553.78 889.44 553.78zM1004.04 901.78l-229.9 0 0-171.4 25.4 0 0-44.3c0-13 10-29 26.6-42 18.3-14.2 42-21.9 66.2-21.9 18.9 0 40.8 7.7 57.9 20.1 17.7 13 28.4 29 28.4 43.7l0 1.2-28.4 0c-4.7-16-18.3-35.5-57.9-35.5-62.6 0-63.2 44.3-63.2 54.4l0 24.8 174.9 0L1004.04 901.78z" /></svg>