<?xml version="1.0" encoding="utf-8"?>
<!-- Generator: Adobe Illustrator 16.0.0, SVG Export Plug-In . SVG Version: 6.00 Build 0)  -->
<!DOCTYPE svg PUBLIC "-//W3C//DTD SVG 1.1//EN" "http://www.w3.org/Graphics/SVG/1.1/DTD/svg11.dtd">
<svg version="1.1" id="图层_1" xmlns="http://www.w3.org/2000/svg" xmlns:xlink="http://www.w3.org/1999/xlink" x="0px" y="0px"
	 width="76px" height="128px" viewBox="0 0 76 128" enable-background="new 0 0 76 128" xml:space="preserve">
<g>
	<path fill="#FCFCFC" d="M38.284,88.426c11.324,0,20.592-9.776,20.592-21.716V22.209c0-11.938-9.268-21.71-20.592-21.71
		c-11.329,0-20.589,9.769-20.589,21.71v44.503C17.695,78.652,26.959,88.426,38.284,88.426L38.284,88.426z M63.101,44.458v22.253
		c0,14.37-11.13,26.052-24.816,26.052c-13.683,0-24.812-11.684-24.812-26.052V44.458H0.808v22.253
		c0,19.293,13.489,35.312,31.132,38.473v9.29h-14.24v13.026h41.173v-13.026H44.616v-9.29c17.657-3.161,31.146-19.18,31.146-38.473
		V44.458H63.101L63.101,44.458z"/>
</g>
</svg>
