<?xml version="1.0" standalone="no"?><!DOCTYPE svg PUBLIC "-//W3C//DTD SVG 1.1//EN" "http://www.w3.org/Graphics/SVG/1.1/DTD/svg11.dtd"><svg t="1503372033521" class="icon" style="" viewBox="0 0 1024 1024" version="1.1" xmlns="http://www.w3.org/2000/svg" p-id="5719" xmlns:xlink="http://www.w3.org/1999/xlink" width="60" height="60"><defs><style type="text/css"></style></defs><path d="M644.393106 20.611433c-131.943344-35.151591-269.785267-17.117866-388.148781 50.824549C137.952444 139.379421 53.320531 249.071705 17.950549 380.335285c-73.026122 270.954085 89.229817 550.431288 361.664532 623.068631 44.03774 11.747555 88.604551 17.528212 132.882778 17.528212 92.720457 0 184.094188-25.473161 265.980458-75.191516 12.038667-7.318686 15.843476-22.968108 8.475369-34.95921-7.368107-11.990079-23.090827-15.769149-35.153032-8.449439-108.878101 66.137303-236.365787 84.651982-358.943449 51.931766C147.655831 888.920512 1.650661 637.348869 67.333237 393.505235 99.163457 275.362488 175.320001 176.62572 281.812677 115.471918c106.51826-61.153802 230.564426-77.356832 349.33728-45.744857 118.772854 31.66007 218.042739 107.428731 279.536751 213.3399 61.468429 105.912192 77.793901 229.302453 45.963681 347.4452-11.244549 41.723264-28.676261 82.051761-51.838723 119.827109-7.34457 11.990079-3.515201 27.6395 8.54905 34.983769 12.086765 7.270591 27.783902 3.466961 35.152008-8.499581 25.643057-41.940205 45.048808-86.723154 57.543889-133.141346C1079.060223 372.702444 916.80326 93.200682 644.393106 20.611433zM511.992325 181.345208c-14.133461 0-25.5704 11.387351-25.5704 25.424042L486.421925 511.983627c0 14.06125 11.436939 25.449625 25.5704 25.449625l255.724464 0c14.134484 0 25.5704-11.388375 25.5704-25.449625 0-14.035668-11.436939-25.424042-25.5704-25.424042L537.561701 486.559585 537.561701 206.76925C537.561701 192.732559 526.125786 181.345208 511.992325 181.345208z" p-id="5720"></path></svg>