<?xml version="1.0" standalone="no"?><!DOCTYPE svg PUBLIC "-//W3C//DTD SVG 1.1//EN" "http://www.w3.org/Graphics/SVG/1.1/DTD/svg11.dtd"><svg t="1503338337874" class="icon" style="" viewBox="0 0 1024 1024" version="1.1" xmlns="http://www.w3.org/2000/svg" p-id="2470" xmlns:xlink="http://www.w3.org/1999/xlink" width="60" height="60"><defs><style type="text/css"></style></defs><path d="M537.6 811.52c-151.04 0-273.92-122.88-273.92-273.92 0-145.92 112.64-263.68 256-271.36v-153.6C302.08 122.88 128 304.64 128 529.92c0 230.4 184.32 417.28 412.16 417.28 61.44 0 120.32-15.36 174.08-38.4L606.72 801.28c-23.04 5.12-46.08 10.24-69.12 10.24z m10.24-698.88v151.04c145.92 5.12 263.68 125.44 263.68 271.36 0 117.76-74.24 217.6-179.2 256L737.28 896c128-71.68 215.04-209.92 215.04-368.64-2.56-225.28-181.76-409.6-404.48-414.72z" fill="#56C8E2" p-id="2471"></path><path d="M547.84 112.64v151.04c145.92 5.12 263.68 125.44 263.68 271.36 0 117.76-74.24 217.6-179.2 256L737.28 896c128-71.68 215.04-209.92 215.04-368.64 0-225.28-181.76-409.6-404.48-414.72z" fill="#FECF06" p-id="2472"></path></svg>