<?xml version="1.0" encoding="utf-8"?>
<!-- Generator: Adobe Illustrator 16.0.0, SVG Export Plug-In . SVG Version: 6.00 Build 0)  -->
<!DOCTYPE svg PUBLIC "-//W3C//DTD SVG 1.1//EN" "http://www.w3.org/Graphics/SVG/1.1/DTD/svg11.dtd">
<svg version="1.1" id="图层_1" xmlns="http://www.w3.org/2000/svg" xmlns:xlink="http://www.w3.org/1999/xlink" x="0px" y="0px"
	 width="28px" height="28px" viewBox="0 0 28 28" enable-background="new 0 0 28 28" xml:space="preserve">
<path fill="#56C8E2" d="M13.938,23.134c-4.923,0-8.927-4.003-8.927-8.926c0-4.755,3.67-8.593,8.344-8.844V0.358
	C6.263,0.692,0.589,6.616,0.589,13.958c0,7.51,6.007,13.6,13.433,13.6c2.003,0,3.921-0.502,5.672-1.251l-3.504-3.505
	C15.441,22.969,14.689,23.134,13.938,23.134z M14.272,0.358v4.922c4.756,0.167,8.595,4.087,8.595,8.843
	c0,3.838-2.421,7.092-5.842,8.343l3.421,3.422c4.172-2.337,7.009-6.841,7.009-12.015C27.371,6.532,21.53,0.525,14.272,0.358z"/>
<path fill="#FECF06" d="M14.272,0.358v4.922c4.756,0.167,8.595,4.087,8.595,8.843c0,3.838-2.421,7.092-5.842,8.343l3.421,3.422
	c4.172-2.337,7.009-6.841,7.009-12.015C27.455,6.532,21.53,0.525,14.272,0.358z"/>
<rect x="-11.867" y="-9.223" fill="none" width="50.834" height="43.125"/>
<path fill="#29B2EF" d="M12.869,17.573c-0.205,0.205-0.541,0.205-0.746,0l-2.261-2.263c-0.205-0.205-0.205-0.54,0-0.745l0.006-0.007
	c0.205-0.205,0.562-0.229,0.792-0.054l1.416,1.075c0.231,0.176,0.597,0.161,0.813-0.032l4.479-4.017
	c0.215-0.193,0.561-0.184,0.766,0.021l0.005,0.006c0.205,0.205,0.206,0.54,0.001,0.745L12.869,17.573z"/>
</svg>
