<?xml version="1.0" standalone="no"?><!DOCTYPE svg PUBLIC "-//W3C//DTD SVG 1.1//EN" "http://www.w3.org/Graphics/SVG/1.1/DTD/svg11.dtd"><svg t="1503371965654" class="icon" style="" viewBox="0 0 1024 1024" version="1.1" xmlns="http://www.w3.org/2000/svg" p-id="4932" xmlns:xlink="http://www.w3.org/1999/xlink" width="60" height="60"><defs><style type="text/css"></style></defs><path d="M682.666667 725.333333a213.333333 213.333333 0 0 1-426.666667 0v-426.666666a213.333333 213.333333 0 0 1 426.666667 0V426.666667a85.333333 85.333333 0 1 1-170.666667 0V298.666667a42.666667 42.666667 0 0 0-85.333333 0V426.666667a170.666667 170.666667 0 1 0 341.333333 0V298.666667a298.666667 298.666667 0 0 0-597.333333 0v426.666666a298.666667 298.666667 0 0 0 597.333333 0 42.666667 42.666667 0 0 0-85.333333 0z" p-id="4933"></path></svg>