<?xml version="1.0" encoding="utf-8"?>
<!-- Generator: Adobe Illustrator 16.0.0, SVG Export Plug-In . SVG Version: 6.00 Build 0)  -->
<!DOCTYPE svg PUBLIC "-//W3C//DTD SVG 1.1//EN" "http://www.w3.org/Graphics/SVG/1.1/DTD/svg11.dtd">
<svg version="1.1" id="图层_1" xmlns="http://www.w3.org/2000/svg" xmlns:xlink="http://www.w3.org/1999/xlink" x="0px" y="0px"
	 width="80px" height="80px" viewBox="0 0 80 80" enable-background="new 0 0 80 80" xml:space="preserve">
<path fill="#8C88FF" d="M79.221,40.249c0-5.294-1.036-10.431-3.084-15.268c-1.974-4.671-4.802-8.865-8.404-12.466
	c-3.601-3.602-7.795-6.429-12.465-8.404C50.431,2.064,45.294,1.027,40,1.027c-5.293,0-10.431,1.038-15.268,3.083
	c-4.67,1.975-8.864,4.803-12.466,8.404c-3.601,3.601-6.429,7.795-8.404,12.466c-2.046,4.836-3.083,9.973-3.083,15.268
	c0,5.292,1.037,10.429,3.083,15.268c1.976,4.67,4.803,8.864,8.404,12.464c3.601,3.604,7.796,6.43,12.466,8.405
	C29.569,78.432,34.706,79.47,40,79.47c5.294,0,10.431-1.038,15.268-3.084c0.152-0.065,0.307-0.131,0.458-0.196
	c1.949-0.844,3.848-1.797,5.619-2.977c0.638-0.426,1.269-0.88,1.857-1.363c0.945-0.778,1.087-2.173,0.313-3.124
	c-0.775-0.954-2.178-1.099-3.132-0.323c-0.414,0.337-0.847,0.655-1.286,0.955c-4.288,2.922-9.521,4.646-14.634,5.351
	c-1.481,0.204-2.971,0.309-4.464,0.309c-9.287,0-18.018-3.616-24.585-10.183C8.847,58.267,5.231,49.536,5.231,40.249
	S8.847,22.23,15.415,15.664C21.981,9.096,30.712,5.479,40,5.479c9.288,0,18.018,3.616,24.586,10.184
	c6.565,6.566,10.183,15.297,10.183,24.585c0,2.509-0.268,4.976-0.782,7.373c-0.021,0.077-0.04,0.154-0.054,0.232
	c-0.001,0.005-0.008,0.04-0.021,0.104c-0.456,2.031-1.098,4.019-1.914,5.934c-0.047,0.106-0.089,0.213-0.131,0.32
	c-0.222,0.499-0.457,0.99-0.705,1.478c-0.563,1.093-0.132,2.436,0.963,2.996c0.314,0.162,0.661,0.246,1.016,0.246
	c0.808,0,1.587-0.441,1.981-1.211c2.118-4.128,2.949-7.834,3.148-8.848C78.903,46.063,79.221,43.18,79.221,40.249z"/>
<path fill="#8C88FF" d="M48.096,45.253c0,4.472-3.625,8.095-8.096,8.095s-8.094-3.624-8.094-8.095V29.063
	c0-4.471,3.625-8.095,8.096-8.095c4.471,0.001,8.094,3.625,8.094,8.095v4.857c0,1.788-1.45,3.238-3.238,3.238
	c-1.789,0-3.238-1.45-3.238-3.238v-4.857c0-0.895-0.725-1.62-1.619-1.62s-1.618,0.725-1.618,1.62v4.857
	c0,3.577,2.897,6.475,6.476,6.476c3.576,0.001,6.476-2.898,6.476-6.475V33.92v-4.857C51.331,22.804,46.257,17.73,40,17.732
	c-6.259,0.001-11.332,5.073-11.333,11.332v16.189c0.001,6.26,5.076,11.333,11.334,11.332c6.259-0.002,11.329-5.074,11.331-11.332
	c0-0.894-0.726-1.618-1.619-1.618C48.821,43.636,48.096,44.36,48.096,45.253z"/>
</svg>
