<?xml version="1.0" encoding="utf-8"?>
<!-- Generator: Adobe Illustrator 16.0.0, SVG Export Plug-In . SVG Version: 6.00 Build 0)  -->
<!DOCTYPE svg PUBLIC "-//W3C//DTD SVG 1.1//EN" "http://www.w3.org/Graphics/SVG/1.1/DTD/svg11.dtd">
<svg version="1.1" id="图层_1" xmlns="http://www.w3.org/2000/svg" xmlns:xlink="http://www.w3.org/1999/xlink" x="0px" y="0px"
	 width="60px" height="60px" viewBox="0 0 60 60" enable-background="new 0 0 60 60" xml:space="preserve">
<path fill="#63A3CB" d="M31.852,31.558c0,0-0.271-0.12-0.766-0.299c3.988-2.735,6.613-7.378,6.613-12.65
	c0.002-8.413-6.689-15.231-14.945-15.231c-8.255,0-14.946,6.819-14.946,15.231c0,5.247,2.6,9.871,6.556,12.61
	c-1.328,0.527-2.597,1.193-3.784,1.988c0,0-8.957,5.669-9.78,16.367c0,0-0.284,2.246,0.353,3.329c0,0,0.86,1.183,2.283,0.985
	c0,0,2.045-0.129,2.177-2.632c0,0-0.057-2.56,0.924-5.331c0,0,0.865-2.579,2.496-4.67c0,0,2.112-3.057,6.018-4.999
	c0,0,4.2-2.298,9.284-1.733c0,0,3.55,0.163,7.2,2.335c0,0,5.016,2.328,7.535,9.438c0,0,0.771,2.34,0.801,4.572
	c0,0-0.336,2.816,2.428,3.04c0,0,2.426,0.179,2.398-3.056c0,0,0.127-5.925-3.596-11.411C41.1,39.441,37.768,34.049,31.852,31.558z
	 M12.076,18.613c0-6.01,4.778-10.882,10.675-10.882c5.897,0,10.675,4.872,10.675,10.882c0,6.013-4.779,10.886-10.675,10.886
	C16.855,29.499,12.076,24.626,12.076,18.613z"/>
<path fill="#63A3CB" d="M59.258,49.168c-0.014-0.314-0.102-5.342-2.959-10.145c0,0-3.277-6.185-9.816-8.905l-0.225-0.139
	c0,0,1.455-1.127,2.145-1.983c0,0,3-3.219,3.447-7.721c0,0,1.131-4.632-2.721-10.404c0,0-1.986-2.636-4.297-3.898
	c0,0-4.717-2.773-7.662-1.614c0,0-1.412,0.716-1.092,2.565c0,0,0.066,1.563,3.881,2.205c0,0,4.316,0.991,6.375,5.804
	c0,0,1.707,3.874-0.324,7.759c0,0-1.412,2.962-3.957,4.19c0,0-2.674,1.168-2.262,4.153c0,0,0.08,2.007,5.178,3.709
	c0,0,4.592,2.052,7.266,6.928c0,0,2.039,3.49,2.117,7.408c0,0-0.354,3.163,2.463,3.304C56.814,52.386,59.406,52.587,59.258,49.168
	L59.258,49.168z"/>
</svg>
