<?xml version="1.0" encoding="utf-8"?>
<!-- Generator: Adobe Illustrator 16.0.0, SVG Export Plug-In . SVG Version: 6.00 Build 0)  -->
<!DOCTYPE svg PUBLIC "-//W3C//DTD SVG 1.1//EN" "http://www.w3.org/Graphics/SVG/1.1/DTD/svg11.dtd">
<svg version="1.1" id="图层_1" xmlns="http://www.w3.org/2000/svg" xmlns:xlink="http://www.w3.org/1999/xlink" x="0px" y="0px"
	 width="50px" height="50px" viewBox="0 0 50 50" enable-background="new 0 0 50 50" xml:space="preserve">
<path fill="#FFFFFF" d="M26.575,27.532c0,0-0.231-0.104-0.651-0.26c3.392-2.377,5.625-6.413,5.625-10.995
	c0.001-7.312-5.69-13.239-12.713-13.239c-7.022,0-12.714,5.927-12.714,13.239c0,4.56,2.211,8.579,5.577,10.958
	c-1.13,0.459-2.209,1.038-3.219,1.73c0,0-7.619,4.928-8.32,14.226c0,0-0.241,1.951,0.301,2.894c0,0,0.731,1.027,1.941,0.856
	c0,0,1.741-0.112,1.852-2.287c0,0-0.048-2.226,0.786-4.635c0,0,0.736-2.243,2.124-4.059c0,0,1.796-2.656,5.118-4.345
	c0,0,3.573-1.998,7.897-1.507c0,0,3.02,0.142,6.124,2.029c0,0,4.268,2.024,6.411,8.202c0,0,0.656,2.034,0.68,3.974
	c0,0-0.285,2.449,2.065,2.643c0,0,2.064,0.157,2.041-2.654c0,0,0.108-5.15-3.061-9.919C34.44,34.385,31.607,29.699,26.575,27.532z
	 M9.752,16.281c0-5.224,4.065-9.458,9.081-9.458c5.016,0,9.081,4.234,9.081,9.458c0,5.227-4.066,9.462-9.081,9.462
	C13.818,25.743,9.752,21.508,9.752,16.281z"/>
<path fill="#FFFFFF" d="M49.888,42.839c-0.011-0.273-0.086-4.644-2.517-8.817c0,0-2.789-5.376-8.352-7.74l-0.19-0.12
	c0,0,1.238-0.979,1.824-1.724c0,0,2.552-2.797,2.931-6.71c0,0,0.964-4.025-2.313-9.042c0,0-1.689-2.292-3.654-3.389
	c0,0-4.012-2.41-6.52-1.402c0,0-1.199,0.622-0.928,2.23c0,0,0.058,1.358,3.302,1.916c0,0,3.672,0.861,5.423,5.045
	c0,0,1.451,3.367-0.276,6.744c0,0-1.201,2.575-3.366,3.642c0,0-2.273,1.016-1.923,3.611c0,0,0.067,1.744,4.402,3.223
	c0,0,3.908,1.782,6.182,6.021c0,0,1.735,3.033,1.8,6.438c0,0-0.3,2.75,2.096,2.874C47.81,45.637,50.014,45.811,49.888,42.839
	L49.888,42.839z"/>
</svg>
