<?xml version="1.0" encoding="utf-8"?>
<!-- Generator: Adobe Illustrator 16.0.0, SVG Export Plug-In . SVG Version: 6.00 Build 0)  -->
<!DOCTYPE svg PUBLIC "-//W3C//DTD SVG 1.1//EN" "http://www.w3.org/Graphics/SVG/1.1/DTD/svg11.dtd">
<svg version="1.1" id="图层_1" xmlns="http://www.w3.org/2000/svg" xmlns:xlink="http://www.w3.org/1999/xlink" x="0px" y="0px"
	 width="60px" height="60px" viewBox="0 0 60 60" enable-background="new 0 0 60 60" xml:space="preserve">
<path fill="#74B4D9" d="M51.906,0.793H8.094c-4.03,0-7.301,3.271-7.301,7.301v43.812c0,4.031,3.271,7.301,7.301,7.301h43.813
	c4.03,0,7.301-3.27,7.301-7.301V8.094C59.207,4.064,55.937,0.793,51.906,0.793z M40.952,32.045h-9.199v8.908
	c0.058,0.992-0.731,1.811-1.753,1.811c-0.993,0-1.811-0.789-2.044-1.811v-8.908h-8.909c-0.993-0.234-1.811-1.021-1.811-2.045
	c0-0.992,0.789-1.81,1.811-1.752h8.909v-9.2c0.234-0.993,1.052-1.811,2.044-1.811c1.021,0,1.811,0.788,1.753,1.811v9.2h9.199
	c1.023-0.058,1.841,0.76,1.812,1.752C42.764,31.023,41.976,31.84,40.952,32.045z"/>
</svg>
