<?xml version="1.0" encoding="utf-8"?>
<!-- Generator: Adobe Illustrator 16.0.0, SVG Export Plug-In . SVG Version: 6.00 Build 0)  -->
<!DOCTYPE svg PUBLIC "-//W3C//DTD SVG 1.1//EN" "http://www.w3.org/Graphics/SVG/1.1/DTD/svg11.dtd">
<svg version="1.1" id="图层_1" xmlns="http://www.w3.org/2000/svg" xmlns:xlink="http://www.w3.org/1999/xlink" x="0px" y="0px"
	 width="50px" height="50px" viewBox="0 0 50 50" enable-background="new 0 0 50 50" xml:space="preserve">
<path fill="#F9F9F9" d="M33.97,27.705c3.863-2.696,6.396-7.165,6.396-12.234c0-8.239-6.679-14.918-14.918-14.918
	S10.528,7.231,10.528,15.471c0,5.062,2.527,9.528,6.381,12.223C8.217,31.102,2.051,39.546,2.051,49.446v0.002H6.24
	c0-0.012-0.002-0.022-0.002-0.034c0-9.816,7.392-17.889,16.912-19.003c0.101-0.009,2.676-0.236,4.789,0.037
	c0.056,0.007,0.109,0.015,0.165,0.021c0.008,0.002,0.017,0.002,0.024,0.004c9.283,1.326,16.426,9.291,16.426,18.939
	c0,0.014-0.004,0.022-0.004,0.034h4.252v-0.002C48.802,39.556,42.649,31.119,33.97,27.705z M25.451,26.652
	c-6.172,0-11.176-5.005-11.176-11.177S19.279,4.299,25.451,4.299c6.173,0,11.177,5.003,11.177,11.176
	C36.628,21.648,31.624,26.652,25.451,26.652z"/>
</svg>
