<?xml version="1.0" encoding="utf-8"?>
<!-- Generator: Adobe Illustrator 16.0.0, SVG Export Plug-In . SVG Version: 6.00 Build 0)  -->
<!DOCTYPE svg PUBLIC "-//W3C//DTD SVG 1.1//EN" "http://www.w3.org/Graphics/SVG/1.1/DTD/svg11.dtd">
<svg version="1.1" id="图层_1" xmlns="http://www.w3.org/2000/svg" xmlns:xlink="http://www.w3.org/1999/xlink" x="0px" y="0px"
	 width="60px" height="60px" viewBox="0 0 60 60" enable-background="new 0 0 60 60" xml:space="preserve">
<g>
	<path fill-rule="evenodd" clip-rule="evenodd" fill="#74B4D9" d="M30.75,41.271c6.541,0,11.892-4.51,11.892-10.02V10.714
		c0-5.51-5.351-10.019-11.892-10.019c-6.542,0-11.89,4.508-11.89,10.019v20.538C18.86,36.762,24.21,41.271,30.75,41.271
		L30.75,41.271z M45.082,20.982v10.27c0,6.631-6.428,12.021-14.332,12.021c-7.902,0-14.329-5.391-14.329-12.021v-10.27H9.107v10.27
		c0,8.902,7.79,16.295,17.98,17.754v4.287h-8.225v6.012H42.64v-6.012h-8.233v-4.287c10.198-1.459,17.987-8.852,17.987-17.754v-10.27
		H45.082L45.082,20.982z"/>
</g>
</svg>
