<?xml version="1.0" encoding="utf-8"?>
<!-- Generator: Adobe Illustrator 16.0.0, SVG Export Plug-In . SVG Version: 6.00 Build 0)  -->
<!DOCTYPE svg PUBLIC "-//W3C//DTD SVG 1.1//EN" "http://www.w3.org/Graphics/SVG/1.1/DTD/svg11.dtd">
<svg version="1.1" id="图层_1" xmlns="http://www.w3.org/2000/svg" xmlns:xlink="http://www.w3.org/1999/xlink" x="0px" y="0px"
	 width="57px" height="57px" viewBox="0 0 57 57" enable-background="new 0 0 57 57" xml:space="preserve">
<path fill="#63A3CB" d="M2.466,3.894c-0.073,0-0.134-0.06-0.134-0.134l0,0c0-0.003,0.001-0.007,0.001-0.011l0,0
	c0.01-0.267,0.162-0.507,0.398-0.63C2.614,3.019,2.547,2.873,2.547,2.718c0-0.292,0.237-0.529,0.53-0.529s0.529,0.237,0.529,0.529
	C3.607,2.874,3.539,3.021,3.42,3.122c0.217,0.114,0.367,0.334,0.391,0.59C3.816,3.726,3.82,3.743,3.82,3.76
	c0,0.074-0.06,0.134-0.134,0.134S3.553,3.834,3.553,3.76c0-0.003,0.001-0.007,0.002-0.011c0-0.006,0-0.012,0-0.018
	C3.551,3.468,3.334,3.257,3.069,3.261C2.812,3.265,2.603,3.473,2.599,3.732C2.599,3.738,2.6,3.744,2.6,3.75H2.599
	C2.599,3.753,2.6,3.757,2.6,3.76C2.6,3.834,2.539,3.894,2.466,3.894z M3.075,2.988c0.146,0,0.266-0.119,0.266-0.266
	S3.222,2.458,3.075,2.458S2.811,2.576,2.811,2.722S2.929,2.988,3.075,2.988z M4.149,4.687H3.99l0,0L2.281,4.688
	c-0.009,0-0.018-0.001-0.026-0.003H2.122V4.53V4.529V4.528V4.367H2.44V4.37L4.14,4.369V4.367H3.903V4.365c0.001,0,0.002,0,0.004,0
	h0.071c0.088,0,0.159-0.071,0.159-0.159l0,0V4.133c0-0.001,0-0.001,0-0.003H4.14L4.139,1.952H4.138c0-0.001,0-0.002,0-0.003V1.876
	c0-0.088-0.071-0.159-0.159-0.159H3.907c-0.002,0-0.003,0.001-0.004,0.001V1.716h0.235V1.714L2.28,1.716
	c-0.009,0-0.018-0.002-0.026-0.003H2.122V1.569c0-0.004-0.001-0.008-0.001-0.012c0-0.005,0.001-0.009,0.001-0.013V1.395H2.44v0.002
	l1.7-0.001c0.174,0.001,0.314,0.142,0.316,0.316l0.001,2.729C4.425,4.582,4.3,4.687,4.149,4.687z M1.905,4.688H1.757
	C1.755,4.689,1.752,4.689,1.75,4.689c-0.088,0-0.159-0.071-0.159-0.159L1.59,1.551c0-0.088,0.071-0.159,0.159-0.159
	c0.009,0,0.017,0.001,0.025,0.003h0.131v0.127c0.001,0.01,0.003,0.02,0.003,0.029L1.909,4.53c0,0.013-0.002,0.024-0.004,0.036V4.688
	z"/>
<path fill="#63A3CB" d="M38.005,31.508c4.297-2.999,7.114-7.971,7.114-13.61c0-9.166-7.43-16.596-16.596-16.596
	c-9.166,0-16.596,7.43-16.596,16.596c0,5.631,2.811,10.599,7.099,13.598c-9.67,3.791-16.53,13.184-16.53,24.199v0.002h4.66
	c0-0.014-0.002-0.025-0.002-0.039c0-10.92,8.223-19.9,18.813-21.139c0.112-0.01,2.977-0.264,5.327,0.039
	c0.062,0.01,0.122,0.018,0.183,0.025c0.01,0.002,0.019,0.002,0.027,0.004c10.328,1.475,18.273,10.336,18.273,21.07
	c0,0.014-0.003,0.025-0.003,0.039h4.729v-0.002C54.504,44.691,47.66,35.307,38.005,31.508z M28.528,30.336
	c-6.866,0-12.433-5.567-12.433-12.433S21.662,5.47,28.528,5.47c6.867,0,12.433,5.566,12.433,12.433S35.395,30.336,28.528,30.336z"/>
</svg>
