<?xml version="1.0" standalone="no"?><!DOCTYPE svg PUBLIC "-//W3C//DTD SVG 1.1//EN" "http://www.w3.org/Graphics/SVG/1.1/DTD/svg11.dtd"><svg class="icon" width="64px" height="64.00px" viewBox="0 0 1024 1024" version="1.1" xmlns="http://www.w3.org/2000/svg"><path d="M409.6 844.8m-25.6 0a25.6 25.6 0 1 0 51.2 0 25.6 25.6 0 1 0-51.2 0Z" fill="#006EE3" /><path d="M627.2 992c-6.4 0-12.8 0-19.2-6.4l-57.6-32c-19.2-12.8-25.6-32-12.8-51.2 0-6.4 6.4-12.8 6.4-12.8 0-25.6-19.2-38.4-38.4-38.4s-32-12.8-32-32c0 0-6.4-25.6-6.4-44.8 0-19.2 6.4-38.4 6.4-44.8 6.4-19.2 19.2-32 32-32 25.6 0 38.4-19.2 38.4-38.4 0-6.4 0-12.8-6.4-12.8-6.4-19.2 0-38.4 12.8-51.2l57.6-32c19.2-6.4 38.4-6.4 51.2 6.4 6.4 6.4 25.6 19.2 32 19.2 6.4 0 25.6-12.8 32-19.2 12.8-12.8 32-19.2 44.8-12.8l57.6 32c19.2 12.8 25.6 32 12.8 51.2l-6.4 12.8c0 19.2 19.2 38.4 38.4 38.4s32 12.8 32 32c0 6.4 6.4 25.6 6.4 44.8s-6.4 38.4-6.4 44.8c-6.4 19.2-19.2 32-32 32-25.6 0-44.8 19.2-44.8 38.4 0 6.4 0 12.8 6.4 12.8 6.4 19.2 0 38.4-12.8 44.8l-51.2 32c-6.4 0-12.8 6.4-19.2 6.4-12.8 0-25.6-6.4-32-12.8-6.4-6.4-25.6-19.2-32-19.2-6.4 0-25.6 12.8-32 19.2-6.4 19.2-12.8 25.6-25.6 25.6z m-128-172.8c38.4 0 70.4 32 70.4 70.4 0 12.8-6.4 25.6-6.4 25.6v12.8l51.2 32s6.4 0 12.8-6.4c0 0 32-32 57.6-32s57.6 32 57.6 32 6.4 6.4 12.8 0l51.2-32s6.4-6.4 0-12.8v-6.4c0-6.4-6.4-12.8-6.4-25.6 0-38.4 32-70.4 70.4-70.4 0 0 6.4 0 6.4-6.4 0-12.8 6.4-25.6 6.4-38.4 0-12.8 0-25.6-6.4-38.4 0-6.4 0-6.4-6.4-6.4-38.4 0-70.4-32-70.4-70.4 0-12.8 6.4-25.6 6.4-25.6 0-6.4 0-6.4-6.4-12.8l-51.2-32h-12.8s-25.6 32-57.6 32c-25.6 0-51.2-25.6-57.6-32 0 0-6.4-6.4-12.8 0l-51.2 32s-6.4 6.4 0 12.8c0 6.4 6.4 19.2 6.4 25.6 0 38.4-32 70.4-70.4 70.4 0 0-6.4 0-6.4 6.4s-6.4 25.6-6.4 38.4c0 19.2 6.4 38.4 6.4 38.4l12.8 19.2z" fill="#007DD7" /><path d="M691.2 864c-51.2 0-89.6-44.8-89.6-96s38.4-96 89.6-96 89.6 44.8 89.6 96c0 57.6-38.4 96-89.6 96z m0-153.6c-32 0-64 25.6-64 64 0 32 25.6 64 64 64s64-25.6 64-64c-6.4-38.4-32-64-64-64z" fill="#007DD7" /><path d="M582.4 972.8h-371.2c-57.6 0-102.4-44.8-102.4-102.4V134.4c0-57.6 44.8-102.4 102.4-102.4h409.6c57.6 0 102.4 44.8 102.4 102.4v460.8h-32v-460.8c0-38.4-32-70.4-70.4-70.4h-409.6c-38.4 0-70.4 32-70.4 70.4v736c0 38.4 32 70.4 70.4 70.4h371.2v32z" fill="#007DD7" /><path d="M121.6 748.8h352v32h-352z" fill="#007DD7" /></svg>