<?xml version="1.0" encoding="utf-8"?>
<!-- Generator: Adobe Illustrator 16.0.0, SVG Export Plug-In . SVG Version: 6.00 Build 0)  -->
<!DOCTYPE svg PUBLIC "-//W3C//DTD SVG 1.1//EN" "http://www.w3.org/Graphics/SVG/1.1/DTD/svg11.dtd">
<svg version="1.1" id="图层_1" xmlns="http://www.w3.org/2000/svg" xmlns:xlink="http://www.w3.org/1999/xlink" x="0px" y="0px"
	 width="53px" height="53px" viewBox="0 0 53 53" enable-background="new 0 0 53 53" xml:space="preserve">
<g>
	<polygon fill="#3193CE" points="9.155,15.7 14.141,15.7 14.141,21.429 9.155,21.429 	"/>
	<polygon fill="#3193CE" points="16.634,15.7 21.621,15.7 21.621,21.429 16.634,21.429 	"/>
	<polygon fill="#3193CE" points="24.114,15.7 29.102,15.7 29.102,21.429 24.114,21.429 	"/>
	<polygon fill="#3193CE" points="31.594,15.7 36.58,15.7 36.58,21.429 31.594,21.429 	"/>
	<polygon fill="#3193CE" points="39.072,15.7 44.061,15.7 44.061,21.429 39.072,21.429 	"/>
	<polygon fill="#3193CE" points="9.155,24.292 14.141,24.292 14.141,30.021 9.155,30.021 	"/>
	<polygon fill="#3193CE" points="9.155,35.75 44.061,35.75 44.061,38.613 9.155,38.613 	"/>
	<polygon fill="#3193CE" points="16.634,24.292 21.621,24.292 21.621,30.021 16.634,30.021 	"/>
	<polygon fill="#3193CE" points="24.114,24.292 29.102,24.292 29.102,30.021 24.114,30.021 	"/>
	<polygon fill="#3193CE" points="31.594,24.292 36.58,24.292 36.58,30.021 31.594,30.021 	"/>
	<polygon fill="#3193CE" points="39.072,24.292 44.061,24.292 44.061,30.021 39.072,30.021 	"/>
	<path fill="#3193CE" d="M47.799,5.675H5.415c-2.743,0-4.986,2.578-4.986,5.729v31.508c0,3.148,2.244,5.729,4.986,5.729h42.384
		c2.741,0,4.987-2.578,4.987-5.729V11.404C52.786,8.253,50.54,5.675,47.799,5.675L47.799,5.675z M50.291,42.912
		c0,1.577-1.118,2.865-2.492,2.865H5.415c-1.375,0-2.494-1.288-2.494-2.865V11.404c0-1.58,1.119-2.865,2.494-2.865h42.384
		c1.374,0,2.492,1.285,2.492,2.865V42.912L50.291,42.912z"/>
</g>
</svg>
