<?xml version="1.0" encoding="utf-8"?>
<!-- Generator: Adobe Illustrator 16.0.0, SVG Export Plug-In . SVG Version: 6.00 Build 0)  -->
<!DOCTYPE svg PUBLIC "-//W3C//DTD SVG 1.1//EN" "http://www.w3.org/Graphics/SVG/1.1/DTD/svg11.dtd">
<svg version="1.1" id="图层_1" xmlns="http://www.w3.org/2000/svg" xmlns:xlink="http://www.w3.org/1999/xlink" x="0px" y="0px"
	 width="126px" height="126px" viewBox="0 0 126 126" enable-background="new 0 0 126 126" xml:space="preserve">
<circle fill="#82BDE1" cx="62.719" cy="62.906" r="62.156"/>
<path fill="#FCFCFC" d="M45.308,66.02C36.684,72.012,31,82.26,31,93.896C31,98.224,35.72,99,63,99c27.336,0,32-0.88,32-5.104
	c0-11.64-5.684-21.884-14.309-27.88C76.5,71.368,70.131,74.78,63,74.78S49.5,71.368,45.308,66.02L45.308,66.02z M63,65.225
	c-10.1,0-18.284-8.557-18.284-19.112C44.716,35.556,52.9,27,63,27c10.1,0,18.284,8.56,18.284,19.112
	C81.283,56.668,73.1,65.225,63,65.225z"/>
</svg>
