<?xml version="1.0" standalone="no"?><!DOCTYPE svg PUBLIC "-//W3C//DTD SVG 1.1//EN" "http://www.w3.org/Graphics/SVG/1.1/DTD/svg11.dtd"><svg class="icon" width="64px" height="64.00px" viewBox="0 0 1024 1024" version="1.1" xmlns="http://www.w3.org/2000/svg"><path fill="#1296db" d="M834.621327 131.493823 188.73399 131.493823c-32.162514 0-58.243519 26.057469-58.243519 58.217936l0 645.899616c0 32.162514 26.081005 58.21896 58.243519 58.21896l645.887336 0c32.162514 0 58.21896-26.056446 58.21896-58.21896L892.840286 189.711759C892.840286 157.551292 866.783841 131.493823 834.621327 131.493823zM845.193103 835.611375c0 5.808286-4.739954 10.5728-10.571776 10.5728L188.73399 846.184175c-5.831822 0-10.596336-4.764514-10.596336-10.5728l0-17.320481 33.700543-33.701566 156.887167-156.886143 61.617359 61.5928 33.67496 33.69952 33.700543-33.69952L654.605394 532.408819l156.912749 156.887167 33.67496 33.69952L845.193103 835.611375zM845.193103 655.596466 654.605394 465.008756 464.018707 655.596466l-95.293343-95.293343L178.137655 750.888785l0-47.64616L178.137655 179.141006 845.193103 179.141006 845.193103 655.596466zM368.725364 465.008756c52.633754 0 95.293343-42.659589 95.293343-95.293343 0-52.610218-42.659589-95.294366-95.293343-95.294366-52.610218 0-95.29539 42.684148-95.29539 95.294366C273.430998 422.350191 316.115146 465.008756 368.725364 465.008756zM368.725364 322.069253c26.28055 0 47.64616 21.390169 47.64616 47.64616 0 26.28055-21.36561 47.647183-47.64616 47.647183-26.25599 0-47.647183-21.366633-47.647183-47.647183C321.079204 343.459423 342.469374 322.069253 368.725364 322.069253z" /></svg>