<?xml version="1.0" standalone="no"?><!DOCTYPE svg PUBLIC "-//W3C//DTD SVG 1.1//EN" "http://www.w3.org/Graphics/SVG/1.1/DTD/svg11.dtd"><svg class="icon" width="64px" height="64.00px" viewBox="0 0 1024 1024" version="1.1" xmlns="http://www.w3.org/2000/svg"><path fill="#1296db" d="M698.412043 140.13752c0.506495 0 37.832946 50.03286 69.969663 93.165648h120.721893c44.043011 0 79.739871 37.440229 79.739871 83.531241v487.056975c0 46.091011-35.70053 83.53124-79.739871 83.53124H135.175341c-44.043011 0-79.739871-37.440229-79.739871-83.53124V316.834409c0-46.201118 35.70053-83.53491 79.739871-83.534911h229.034666c32.445018-43.129118 70.175197-93.161978 70.890896-93.161978h263.31114zM255.897233 444.808717c25.0201 0 45.360631-21.236072 45.360631-47.511398 0-26.275326-20.34053-47.511398-45.364301-47.511398-25.119197 0-45.356961 21.236072-45.356961 47.511398 0 26.275326 20.237763 47.511398 45.360631 47.511398z m323.826237 340.691039c110.44886 0 197.811842-92.725219 197.811842-209.207971 0-116.372645-87.362982-210.745806-197.811842-210.745807-110.45253 0-199.955269 94.373161-199.955269 210.745807 0.106437 116.482753 89.605505 209.204301 199.955269 209.204301zM698.412043 84.415771h-263.31114c-8.544344 0-25.0201 2.407685-38.853276 18.828387-0.712029 0.767082-1.424057 1.75438-2.33795 2.958222-1.32129 1.640602-3.053649 3.938179-5.391598 6.896401-3.963871 5.145692-9.6601 12.588961-16.982251 22.22337-8.544344 11.275011-19.224774 25.398136-31.938523 42.259268H135.175341c-34.885735 0-67.738151 14.33967-92.552717 40.284674-12.203584 12.699068-21.764588 27.699384-28.477477 44.336631C7.230394 279.394179 3.670251 297.789477 3.670251 316.838079v487.056975c0 18.938495 3.560143 37.333792 10.577663 54.738122 6.712889 16.640918 16.273892 31.527455 28.477477 44.33663C67.539957 928.91848 100.392373 943.25448 135.274437 943.25448h754.034696c34.885735 0 67.73448-14.33967 92.552716-40.284674 12.203584-12.699068 21.764588-27.699384 28.473807-44.33663 7.01752-17.301563 10.577663-35.803297 10.577663-54.741792V316.834409c0-18.938495-3.560143-37.333792-10.577663-54.738122-6.712889-16.640918-16.270222-31.527455-28.473807-44.336631-24.818237-25.948674-57.666982-40.288344-92.552716-40.288344h-95.903656c-12.515556-16.751025-22.986781-30.764043-31.428359-42.039054-7.223054-9.634409-12.816516-17.077677-16.68129-22.223369-2.238853-2.958222-3.963871-5.255799-5.285161-6.789964-0.917563-1.093735-1.530495-1.970925-2.238853-2.734337-13.935943-16.751025-30.613563-19.268817-39.359771-19.268817z m-118.688573 645.362236c-81.670423 0-148.18638-68.861247-148.18638-153.489892 0-85.498495 66.41319-155.013047 148.18638-155.013047 81.868616 0 146.046624 68.090495 146.046623 155.016717 0 86.045362-64.178007 153.486222-146.046623 153.486222z" /></svg>