<?xml version="1.0" standalone="no"?><!DOCTYPE svg PUBLIC "-//W3C//DTD SVG 1.1//EN" "http://www.w3.org/Graphics/SVG/1.1/DTD/svg11.dtd"><svg class="icon" width="64px" height="64.00px" viewBox="0 0 1024 1024" version="1.1" xmlns="http://www.w3.org/2000/svg"><path fill="#1296db" d="M401.337109 266.269389 273.715477 266.269389c-20.535709 0-37.231973 16.695241-37.231973 37.231973l0 416.997276c0 20.535709 16.695241 37.231973 37.231973 37.231973l476.568023 0c20.535709 0 37.231973-16.695241 37.231973-37.231973L787.515473 415.19728 531.662317 415.19728 401.337109 266.269389zM809.85527 95.002724 214.14473 95.002724c-65.796542 0-119.142517 53.345975-119.142517 119.142517L95.002212 809.854758c0 65.796542 53.345975 119.142517 119.142517 119.142517L809.85527 928.997276c65.795519 0 119.142517-53.345975 119.142517-119.142517L928.997788 214.145242C928.997788 148.3487 875.650789 95.002724 809.85527 95.002724zM832.194044 720.498638c0 45.173852-36.736693 81.910545-81.910545 81.910545L273.715477 802.409183c-45.172829 0-81.910545-36.736693-81.910545-81.910545l0-416.997276c0-45.172829 36.737716-81.910545 81.910545-81.910545l147.894352 0 130.297578 148.927891L832.194044 370.518708 832.194044 720.498638zM759.649821 316.066539 570.523393 316.066539l-35.749202-44.678572 224.87563 0c31.705096 0 58.931181 18.267039 72.544223 44.678572L759.649821 316.066539z" /></svg>