<?xml version="1.0" standalone="no"?><!DOCTYPE svg PUBLIC "-//W3C//DTD SVG 1.1//EN" "http://www.w3.org/Graphics/SVG/1.1/DTD/svg11.dtd"><svg class="icon" width="64px" height="64.00px" viewBox="0 0 1024 1024" version="1.1" xmlns="http://www.w3.org/2000/svg"><path fill="#1296db" d="M889.531 886.774c23.984 24.715 50.018 33.632 72.277 27.618 27.929-7.536 33.281-39.301 33.281-58.14 0-25.164 0-530.266 0-605.652 0-27.444-8.949-50.19-33.281-58.14-24.677-8.089-52.609 7.536-76.771 32.768-7.778 8.124-217.9 227.163-217.9 227.163-23.123 23.677-34.322 37.571-34.391 96.263-0.103 61.905 22.086 93.084 43.242 114.307 0 0 195.915 205.664 213.545 223.81v0zM925.308 776.649c0 18.907-10.545 23.056-23.438 9.23l-193.6-208.014c-12.892-13.859-12.892-36.501 0-50.362l193.6-208.013c12.895-13.86 23.438-9.712 23.438 9.229v447.931z"  /><path fill="#1296db" d="M231.581 386.096c0 0-8.607 0-26.131 0-17.18 0-18.113 0-18.113 20.463 0 16.452-0.035 23.92-0.035 23.92 0 10.889-8.779 19.701-19.633 19.701-10.852 0-19.667-8.813-19.667-19.701v-51.364c0-24.23 10.196-32.422 33.806-32.422h49.74c10.852 0 19.633 8.813 19.633 19.701 0.068 10.889-8.71 19.701-19.598 19.701v0M231.581 386.096v0z"  /><path fill="#1296db" d="M611.141 226.024l-515.091-0.035c-37.814 0-68.785 30.971-68.785 68.82v516.923c0 37.85 30.971 68.785 68.785 68.785h515.091c37.85 0 68.785-30.971 68.785-68.785v-516.923c0-37.851-30.971-68.785-68.785-68.785zM611.277 773.084c0 19.968-16.336 36.304-36.304 36.304h-15.271c-5.516 1.438-11.294 2.205-17.242 2.205h-377.695c-5.951 0-11.73-0.768-17.247-2.205h-16.859c-19.968 0-36.304-16.336-36.304-36.304v-443.73c0-19.968 16.336-36.304 36.304-36.304h444.314c19.968 0 36.304 16.336 36.304 36.304v443.73z"  /></svg>