<?xml version="1.0" encoding="utf-8"?>
<!-- Generator: Adobe Illustrator 16.0.0, SVG Export Plug-In . SVG Version: 6.00 Build 0)  -->
<!DOCTYPE svg PUBLIC "-//W3C//DTD SVG 1.1//EN" "http://www.w3.org/Graphics/SVG/1.1/DTD/svg11.dtd">
<svg version="1.1" id="图层_1" xmlns="http://www.w3.org/2000/svg" xmlns:xlink="http://www.w3.org/1999/xlink" x="0px" y="0px"
	 width="114px" height="114px" viewBox="0 0 114 114" enable-background="new 0 0 114 114" xml:space="preserve">
<path fill="#F1F2F2" stroke="#1296DB" stroke-miterlimit="10" d="M112.125,100.296c0,6.533-5.444,11.829-12.159,11.829H14.032
	c-6.713,0-12.157-5.296-12.157-11.829V13.703c0-6.531,5.444-11.828,12.157-11.828h85.934c6.715,0,12.159,5.297,12.159,11.828
	V100.296z"/>
<path fill="#71ACCF" d="M81.541,24.333H34.608c-4.713,0-8.533,3.9-8.533,8.711v47.911c0,4.811,3.82,8.711,8.533,8.711h46.933
	c4.713,0,8.533-3.9,8.533-8.711V33.044C90.074,28.233,86.254,24.333,81.541,24.333z M85.809,33.044V37.4H75.141v-8.711h6.4
	C83.898,28.689,85.809,30.639,85.809,33.044z M55.941,76.6v8.711H45.275V76.6H55.941z M60.209,76.6h10.666v8.711H60.209V76.6z
	 M30.341,72.244V41.756h55.467v30.488H30.341z M60.209,37.4v-8.711h10.666V37.4H60.209z M55.941,37.4H45.275v-8.711h10.667V37.4z
	 M34.608,28.689h6.4V37.4H30.341v-4.355C30.341,30.639,32.252,28.689,34.608,28.689z M30.341,80.955V76.6h10.667v8.711h-6.4
	C32.252,85.311,30.341,83.361,30.341,80.955z M81.541,85.311h-6.4V76.6h10.668v4.355C85.809,83.361,83.898,85.311,81.541,85.311z"/>
<path fill="#71ACCF" d="M67.674,55.105l-14.933-8.711c-1.02-0.602-2.325-0.244-2.914,0.797c-0.189,0.333-0.287,0.712-0.286,1.098
	v17.422c-0.005,1.203,0.947,2.182,2.125,2.186c0.377,0.004,0.749-0.098,1.075-0.291l14.933-8.711
	c1.025-0.594,1.387-1.921,0.805-2.968C68.289,55.583,68.01,55.3,67.674,55.105z M53.808,61.967v-9.932L62.342,57L53.808,61.967z"/>
</svg>
